<svg width="708" height="631" viewBox="0 0 708 631" fill="none" xmlns="http://www.w3.org/2000/svg">
<g filter="url(#filter0_dd_9_1040)">
<g clip-path="url(#clip0_9_1040)">
<rect x="31" y="24" width="954" height="567.765" rx="15.4494" fill="white" fill-opacity="0.01" shape-rendering="crispEdges"/>
<g clip-path="url(#clip1_9_1040)">
<g clip-path="url(#clip2_9_1040)">
<g clip-path="url(#clip3_9_1040)">
<path d="M31 24H985V591.765H31V24Z" fill="white"/>
<path d="M965.688 75.1761H50.3117C46.0455 75.1761 42.587 78.6345 42.587 82.9008V572.453C42.587 576.72 46.0455 580.178 50.3117 580.178H965.688C969.955 580.178 973.413 576.72 973.413 572.453V82.9008C973.413 78.6345 969.955 75.1761 965.688 75.1761Z" fill="#F7F7F8"/>
<mask id="mask0_9_1040" style="mask-type:luminance" maskUnits="userSpaceOnUse" x="450" y="289" width="116" height="78">
<path d="M527.312 289.536H488.688C467.357 289.536 450.065 306.829 450.065 328.16C450.065 349.491 467.357 366.783 488.688 366.783H527.312C548.643 366.783 565.935 349.491 565.935 328.16C565.935 306.829 548.643 289.536 527.312 289.536Z" fill="white"/>
</mask>
<g mask="url(#mask0_9_1040)">
<path d="M527.312 289.536H488.688C467.357 289.536 450.065 306.829 450.065 328.16C450.065 349.491 467.357 366.783 488.688 366.783H527.312C548.643 366.783 565.935 349.491 565.935 328.16C565.935 306.829 548.643 289.536 527.312 289.536Z" fill="white" fill-opacity="0.88"/>
<g filter="url(#filter1_d_9_1040)">
<path d="M527.312 297.261H488.688C471.623 297.261 457.79 311.095 457.79 328.16C457.79 345.225 471.623 359.059 488.688 359.059H527.312C544.377 359.059 558.211 345.225 558.211 328.16C558.211 311.095 544.377 297.261 527.312 297.261Z" fill="white"/>
<path d="M506.39 328.16C507.447 328.16 508.494 327.952 509.47 327.548C510.446 327.143 511.333 326.551 512.081 325.804C512.828 325.056 513.421 324.169 513.825 323.193C514.229 322.217 514.438 321.17 514.438 320.114C514.438 321.17 514.646 322.217 515.05 323.193C515.454 324.169 516.047 325.056 516.794 325.803C517.541 326.55 518.428 327.143 519.405 327.547C520.381 327.952 521.427 328.16 522.484 328.16C520.35 328.16 518.303 329.008 516.794 330.517C515.285 332.026 514.438 334.072 514.438 336.206C514.438 335.149 514.229 334.103 513.825 333.127C513.421 332.151 512.828 331.263 512.081 330.516C511.333 329.769 510.446 329.176 509.47 328.772C508.494 328.368 507.447 328.16 506.39 328.16Z" fill="#18181B" stroke="#18181B" stroke-width="2.41397" stroke-linecap="round" stroke-linejoin="round"/>
<path d="M501.562 319.308C502.203 319.308 502.817 319.054 503.269 318.601C503.722 318.149 503.976 317.535 503.976 316.894C503.976 317.535 504.231 318.149 504.683 318.601C505.136 319.054 505.75 319.308 506.39 319.308C505.75 319.308 505.136 319.563 504.683 320.015C504.231 320.468 503.976 321.082 503.976 321.722C503.976 321.082 503.722 320.468 503.269 320.015C502.817 319.563 502.203 319.308 501.562 319.308ZM493.516 326.55C494.405 326.55 495.126 325.83 495.126 324.942C495.126 325.83 495.846 326.55 496.735 326.55C495.846 326.55 495.126 327.271 495.126 328.16C495.126 327.271 494.405 326.55 493.516 326.55Z" stroke="#18181B" stroke-width="2.41397" stroke-linecap="round" stroke-linejoin="round"/>
<path d="M496.734 336.206C498.015 336.206 499.243 335.698 500.148 334.792C501.054 333.887 501.562 332.659 501.562 331.378C501.562 332.659 502.071 333.887 502.976 334.792C503.882 335.698 505.11 336.206 506.39 336.206C505.11 336.206 503.882 336.715 502.976 337.62C502.071 338.526 501.562 339.754 501.562 341.034C501.562 339.754 501.054 338.526 500.148 337.62C499.243 336.715 498.015 336.206 496.734 336.206Z" fill="#18181B" stroke="#18181B" stroke-width="2.41397" stroke-linecap="round" stroke-linejoin="round"/>
</g>
</g>
<g filter="url(#filter2_d_9_1040)">
<path d="M584.175 393.227L580.966 376.545L595.082 384.886L588.025 386.811L584.175 393.227Z" fill="#18181B"/>
<path d="M581.293 375.992L580.068 375.268L580.337 376.666L583.545 393.349L583.861 394.996L584.726 393.557L588.442 387.362L595.252 385.505L596.715 385.105L595.409 384.334L581.293 375.992Z" stroke="white" stroke-width="1.28327" stroke-linecap="square"/>
</g>
<g filter="url(#filter3_d_9_1040)">
<path d="M673.245 397.077H602.782C602.073 397.077 601.499 397.651 601.499 398.36V418.32C601.499 419.028 602.073 419.603 602.782 419.603H673.245C673.953 419.603 674.528 419.028 674.528 418.32V398.36C674.528 397.651 673.953 397.077 673.245 397.077Z" fill="#18181B"/>
<path d="M608.05 412.526V402.26H611.809C612.538 402.26 613.141 402.381 613.619 402.621C614.097 402.859 614.454 403.181 614.692 403.589C614.929 403.993 615.048 404.449 615.048 404.957C615.048 405.385 614.969 405.746 614.812 406.039C614.663 406.322 614.446 406.563 614.181 406.741C613.92 406.915 613.632 407.043 613.319 407.123V407.223C613.66 407.24 613.992 407.35 614.316 407.553C614.643 407.754 614.914 408.04 615.128 408.411C615.342 408.782 615.449 409.233 615.449 409.765C615.449 410.289 615.325 410.76 615.078 411.178C614.834 411.592 614.456 411.922 613.945 412.165C613.434 412.405 612.781 412.526 611.985 412.526H608.05ZM609.599 411.198H611.834C612.576 411.198 613.108 411.055 613.429 410.767C613.749 410.479 613.91 410.12 613.91 409.689C613.91 409.365 613.828 409.067 613.664 408.797C613.495 408.521 613.252 408.297 612.962 408.15C612.662 407.99 612.304 407.91 611.89 407.91H609.599V411.198ZM609.599 406.702H611.674C612.022 406.702 612.335 406.634 612.612 406.501C612.892 406.368 613.115 406.18 613.278 405.94C613.445 405.696 613.529 405.408 613.529 405.078C613.529 404.653 613.38 404.297 613.083 404.01C612.786 403.722 612.329 403.578 611.715 403.578H609.599V406.702ZM619.548 412.697C619.092 412.704 618.64 412.611 618.224 412.426C617.843 412.254 617.518 411.978 617.287 411.629C617.059 411.282 616.946 410.856 616.946 410.351C616.946 409.916 617.029 409.559 617.196 409.278C617.36 409.001 617.593 408.771 617.873 408.612C618.157 408.448 618.475 408.324 618.825 408.24C619.179 408.156 619.537 408.093 619.898 408.05L621.021 407.919C621.309 407.883 621.517 407.825 621.648 407.745C621.778 407.663 621.843 407.533 621.843 407.354V407.318C621.843 406.88 621.719 406.541 621.472 406.3C621.229 406.06 620.864 405.94 620.38 405.94C619.875 405.94 619.477 406.052 619.186 406.275C618.899 406.496 618.7 406.741 618.59 407.013L617.182 406.691C617.349 406.224 617.592 405.846 617.913 405.559C618.235 405.269 618.617 405.054 619.031 404.927C619.461 404.792 619.909 404.724 620.36 404.726C620.667 404.726 620.993 404.763 621.337 404.837C621.684 404.907 622.009 405.037 622.309 405.227C622.613 405.419 622.862 405.691 623.057 406.045C623.251 406.396 623.347 406.851 623.347 407.413V412.526H621.883V411.474H621.824C621.711 411.687 621.564 411.881 621.387 412.045C621.17 412.246 620.917 412.404 620.641 412.511C620.337 412.635 619.972 412.697 619.548 412.697ZM619.873 411.494C620.287 411.494 620.642 411.412 620.936 411.248C621.234 411.085 621.459 410.87 621.613 410.607C621.769 410.339 621.849 410.053 621.849 409.749V408.757C621.795 408.811 621.691 408.86 621.538 408.907C621.368 408.955 621.195 408.993 621.021 409.022L620.454 409.108L619.994 409.168C619.722 409.2 619.454 409.262 619.196 409.353C618.96 409.44 618.768 409.566 618.625 409.729C618.485 409.889 618.415 410.104 618.415 410.371C618.415 410.742 618.551 411.023 618.825 411.213C619.1 411.4 619.449 411.494 619.873 411.494ZM629.079 404.827V406.03H624.873V404.827H629.079ZM626.001 402.982H627.499V410.266C627.499 410.556 627.543 410.776 627.63 410.922C627.717 411.066 627.829 411.165 627.966 411.218C628.107 411.268 628.258 411.293 628.422 411.293C628.542 411.293 628.647 411.284 628.738 411.268L628.949 411.227L629.219 412.466C628.906 412.573 628.577 412.627 628.247 412.627C627.868 412.636 627.492 412.564 627.144 412.416C626.808 412.273 626.521 412.037 626.316 411.734C626.106 411.426 626.001 411.041 626.001 410.577V402.982ZM635.755 409.333V404.827H637.259V412.526H635.785V411.193H635.705C635.524 411.609 635.229 411.965 634.853 412.22C634.465 412.491 633.982 412.627 633.404 412.627C632.909 412.627 632.472 412.518 632.091 412.3C631.703 412.07 631.393 411.73 631.198 411.323C630.985 410.892 630.878 410.359 630.878 409.724V404.827H632.376V409.543C632.376 410.069 632.522 410.486 632.813 410.797C633.103 411.108 633.481 411.263 633.946 411.263C634.227 411.263 634.506 411.193 634.783 411.053C635.069 410.907 635.31 410.687 635.48 410.415C635.666 410.132 635.759 409.771 635.755 409.333ZM644.612 415.413V411.328H644.522C644.432 411.492 644.301 411.679 644.131 411.89C643.94 412.119 643.705 412.307 643.439 412.441C643.145 412.598 642.764 412.677 642.296 412.677C641.706 412.686 641.128 412.52 640.632 412.201C640.147 411.879 639.766 411.424 639.489 410.832C639.215 410.237 639.079 409.523 639.079 408.692C639.079 407.86 639.217 407.148 639.494 406.556C639.775 405.965 640.159 405.512 640.647 405.197C641.142 404.881 641.719 404.718 642.307 404.726C642.785 404.726 643.169 404.806 643.459 404.967C643.753 405.124 643.981 405.308 644.141 405.519C644.304 405.729 644.432 405.915 644.522 406.075H644.647V404.827H646.111V415.413H644.612ZM642.627 411.398C643.058 411.398 643.423 411.284 643.72 411.058C644.02 410.827 644.248 410.508 644.402 410.1C644.558 409.692 644.637 409.218 644.637 408.676C644.637 408.141 644.56 407.674 644.407 407.273C644.253 406.872 644.027 406.56 643.73 406.336C643.432 406.112 643.064 406 642.627 406C642.176 406 641.8 406.117 641.499 406.35C641.187 406.6 640.951 406.932 640.818 407.308C640.661 407.747 640.585 408.21 640.592 408.676C640.592 409.191 640.669 409.654 640.822 410.065C640.976 410.476 641.204 410.802 641.504 411.042C641.808 411.28 642.183 411.398 642.627 411.398ZM650.508 412.697C650.02 412.697 649.578 412.606 649.184 412.426C648.803 412.253 648.478 411.977 648.247 411.629C648.02 411.282 647.906 410.856 647.906 410.351C647.906 409.916 647.99 409.559 648.157 409.278C648.321 409.001 648.554 408.771 648.834 408.612C649.118 408.448 649.435 408.324 649.786 408.24C650.14 408.156 650.498 408.093 650.859 408.05L651.982 407.919C652.269 407.883 652.478 407.825 652.608 407.745C652.739 407.663 652.803 407.533 652.803 407.354V407.318C652.803 406.88 652.68 406.541 652.433 406.3C652.188 406.06 651.824 405.94 651.34 405.94C650.836 405.94 650.438 406.052 650.147 406.275C649.859 406.496 649.66 406.741 649.55 407.013L648.142 406.691C648.309 406.224 648.553 405.846 648.873 405.559C649.196 405.269 649.577 405.054 649.992 404.927C650.422 404.792 650.87 404.724 651.32 404.726C651.627 404.726 651.953 404.763 652.297 404.837C652.645 404.907 652.97 405.037 653.27 405.227C653.574 405.419 653.823 405.691 654.017 406.045C654.21 406.396 654.308 406.851 654.308 407.413V412.526H652.844V411.474H652.783C652.687 411.668 652.542 411.858 652.348 412.045C652.13 412.247 651.877 412.404 651.6 412.511C651.296 412.635 650.932 412.697 650.508 412.697ZM650.834 411.494C651.248 411.494 651.602 411.412 651.897 411.248C652.194 411.085 652.419 410.87 652.573 410.607C652.73 410.339 652.808 410.053 652.808 409.749V408.757C652.755 408.811 652.652 408.86 652.498 408.907C652.328 408.955 652.156 408.993 651.982 409.022L651.415 409.108L650.954 409.168C650.682 409.2 650.415 409.262 650.157 409.353C649.92 409.44 649.729 409.566 649.585 409.729C649.445 409.889 649.375 410.104 649.375 410.371C649.375 410.742 649.512 411.023 649.786 411.213C650.06 411.4 650.41 411.494 650.834 411.494ZM656.445 412.526V404.827H657.894V406.05H657.974C658.114 405.636 658.361 405.309 658.716 405.073C659.073 404.831 659.478 404.712 659.928 404.712C660.141 404.713 660.354 404.724 660.566 404.746V406.18C660.46 406.155 660.353 406.136 660.244 406.125C660.092 406.101 659.938 406.089 659.784 406.09C659.454 406.084 659.128 406.161 658.836 406.316C658.567 406.458 658.341 406.671 658.185 406.933C658.022 407.201 657.939 407.511 657.944 407.825V412.526H656.445ZM664.175 412.697C663.688 412.697 663.246 412.606 662.852 412.426C662.471 412.254 662.146 411.978 661.915 411.629C661.688 411.282 661.574 410.856 661.574 410.351C661.574 409.916 661.657 409.559 661.824 409.278C661.988 409.001 662.221 408.771 662.501 408.612C662.785 408.448 663.102 408.324 663.454 408.24C663.808 408.156 664.166 408.093 664.527 408.05L665.649 407.919C665.936 407.883 666.145 407.825 666.275 407.745C666.406 407.663 666.471 407.533 666.471 407.354V407.318C666.471 406.88 666.348 406.541 666.1 406.3C665.856 406.06 665.492 405.94 665.007 405.94C664.502 405.94 664.106 406.052 663.814 406.275C663.527 406.496 663.328 406.741 663.218 407.013L661.809 406.691C661.977 406.224 662.221 405.846 662.541 405.559C662.863 405.269 663.245 405.054 663.659 404.927C664.088 404.792 664.537 404.724 664.987 404.726C665.295 404.726 665.621 404.763 665.965 404.837C666.312 404.907 666.636 405.037 666.938 405.227C667.242 405.419 667.49 405.691 667.684 406.045C667.878 406.396 667.975 406.851 667.975 407.413V412.526H666.511V411.474H666.451C666.354 411.668 666.209 411.858 666.015 412.045C665.798 412.247 665.544 412.405 665.268 412.511C664.964 412.635 664.6 412.697 664.175 412.697ZM664.501 411.494C664.916 411.494 665.27 411.412 665.564 411.248C665.861 411.085 666.087 410.87 666.241 410.607C666.398 410.339 666.476 410.053 666.476 409.749V408.757C666.423 408.811 666.319 408.86 666.165 408.907C665.995 408.955 665.823 408.993 665.649 409.022L665.083 409.108L664.621 409.168C664.35 409.2 664.083 409.262 663.825 409.353C663.587 409.44 663.397 409.566 663.253 409.729C663.113 409.889 663.042 410.104 663.042 410.371C663.042 410.742 663.18 411.023 663.454 411.213C663.727 411.4 664.077 411.494 664.501 411.494Z" fill="white"/>
</g>
<path d="M55.1397 52.9676C57.8061 52.9676 59.9676 50.806 59.9676 48.1396C59.9676 45.4732 57.8061 43.3117 55.1397 43.3117C52.4733 43.3117 50.3118 45.4732 50.3118 48.1396C50.3118 50.806 52.4733 52.9676 55.1397 52.9676Z" fill="#FB8C8C"/>
<path d="M55.1397 52.4848C57.5395 52.4848 59.4848 50.5394 59.4848 48.1396C59.4848 45.7399 57.5395 43.7945 55.1397 43.7945C52.7399 43.7945 50.7946 45.7399 50.7946 48.1396C50.7946 50.5394 52.7399 52.4848 55.1397 52.4848Z" stroke="#18181B" stroke-opacity="0.08" stroke-width="0.965587"/>
<path d="M70.589 52.9676C73.2554 52.9676 75.417 50.806 75.417 48.1396C75.417 45.4732 73.2554 43.3117 70.589 43.3117C67.9226 43.3117 65.7611 45.4732 65.7611 48.1396C65.7611 50.806 67.9226 52.9676 70.589 52.9676Z" fill="#FFCD82"/>
<path d="M70.589 52.4848C72.9888 52.4848 74.9342 50.5394 74.9342 48.1396C74.9342 45.7399 72.9888 43.7945 70.589 43.7945C68.1893 43.7945 66.2439 45.7399 66.2439 48.1396C66.2439 50.5394 68.1893 52.4848 70.589 52.4848Z" stroke="#18181B" stroke-opacity="0.08" stroke-width="0.965587"/>
<path d="M86.0384 52.9676C88.7048 52.9676 90.8664 50.806 90.8664 48.1396C90.8664 45.4732 88.7048 43.3117 86.0384 43.3117C83.3721 43.3117 81.2105 45.4732 81.2105 48.1396C81.2105 50.806 83.3721 52.9676 86.0384 52.9676Z" fill="#A7ED7D"/>
<path d="M86.0384 52.4848C88.4382 52.4848 90.3836 50.5394 90.3836 48.1396C90.3836 45.7399 88.4382 43.7945 86.0384 43.7945C83.6387 43.7945 81.6933 45.7399 81.6933 48.1396C81.6933 50.5394 83.6387 52.4848 86.0384 52.4848Z" stroke="#18181B" stroke-opacity="0.08" stroke-width="0.965587"/>
<path d="M256.947 47.146C256.947 43.4382 256.947 41.5843 257.669 40.1677C258.304 38.9219 259.317 37.909 260.563 37.2739C261.979 36.5526 263.833 36.5526 267.541 36.5526H748.459C752.167 36.5526 754.021 36.5526 755.437 37.2739C756.683 37.909 757.696 38.9219 758.331 40.1677C759.053 41.5843 759.053 43.4382 759.053 47.146V49.1332C759.053 52.8411 759.053 54.695 758.331 56.1115C757.696 57.3573 756.683 58.3703 755.437 59.0054C754.021 59.7267 752.167 59.7267 748.459 59.7267H267.541C263.833 59.7267 261.979 59.7267 260.563 59.0054C259.317 58.3703 258.304 57.3573 257.669 56.1115C256.947 54.695 256.947 52.8411 256.947 49.1332V47.1451V47.146Z" fill="#F7F7F8"/>
<path d="M470.333 52.9676H474.787C475.502 52.9676 475.882 52.5736 475.882 51.7963V48.4052C475.882 47.6279 475.502 47.2387 474.787 47.2387H470.333C469.618 47.2387 469.238 47.6279 469.238 48.4052V51.7963C469.238 52.5736 469.618 52.9676 470.333 52.9676ZM470.09 47.6182H470.864V45.9545C470.864 44.7147 471.648 44.0552 472.558 44.0552C473.468 44.0552 474.261 44.7147 474.261 45.9545V47.6182H475.03V46.0636C475.03 44.2126 473.833 43.3117 472.558 43.3117C471.287 43.3117 470.09 44.2126 470.09 46.0636V47.6182Z" fill="#B3B3BC"/>
<path d="M488.658 51.6187C489.054 51.6254 489.447 51.5521 489.814 51.4034C490.158 51.2605 490.429 51.0606 490.629 50.8048C490.828 50.546 490.928 50.2476 490.928 49.9116V49.9019C490.928 49.4954 490.797 49.171 490.534 48.9296C490.275 48.6882 489.879 48.5018 489.347 48.3724L488.475 48.1619C488.142 48.0818 487.9 47.9785 487.75 47.853C487.678 47.7959 487.62 47.723 487.581 47.6399C487.542 47.5569 487.522 47.4659 487.524 47.374V47.3644C487.521 47.2036 487.575 47.0471 487.676 46.9221C487.778 46.7966 487.916 46.6981 488.092 46.6286C488.266 46.5542 488.466 46.5175 488.69 46.5175C489.033 46.5175 489.312 46.588 489.525 46.728C489.727 46.8513 489.873 47.0468 489.935 47.2746H490.834C490.797 46.9789 490.677 46.6999 490.487 46.4702C490.29 46.2343 490.035 46.0534 489.747 45.945C489.412 45.8133 489.055 45.749 488.695 45.7557C488.296 45.7557 487.937 45.8281 487.618 45.972C487.3 46.1149 487.048 46.3109 486.862 46.56C486.68 46.8082 486.589 47.0911 486.589 47.4059V47.4107C486.589 47.8172 486.713 48.1426 486.962 48.3879C487.21 48.6293 487.599 48.8137 488.128 48.9392L489.005 49.1497C489.355 49.2337 489.607 49.3438 489.762 49.4809C489.835 49.5398 489.893 49.6143 489.933 49.6989C489.973 49.7835 489.993 49.876 489.993 49.9695V49.9792C489.994 50.1471 489.935 50.3099 489.825 50.4369C489.698 50.5765 489.539 50.683 489.362 50.7468C489.147 50.8243 488.919 50.8616 488.69 50.8569C488.329 50.8569 488.036 50.7854 487.812 50.6416C487.6 50.512 487.439 50.3112 487.361 50.0748H486.426C486.461 50.3867 486.575 50.658 486.768 50.8888C486.964 51.1205 487.223 51.3001 487.545 51.4295C487.868 51.556 488.238 51.6187 488.658 51.6187ZM494.243 51.6187C494.66 51.6187 495.008 51.5367 495.289 51.3725C495.572 51.2084 495.784 50.9747 495.924 50.6734H496.008V51.5193H496.923V45.8561H496.008V49.2077C496.008 49.5369 495.95 49.8228 495.836 50.0641C495.72 50.3026 495.548 50.4861 495.32 50.6155C495.093 50.7449 494.812 50.8096 494.48 50.8096C494.028 50.8096 493.703 50.686 493.503 50.4369C493.307 50.1887 493.208 49.8092 493.208 49.3023V45.8552H492.294V49.5234C492.294 49.9676 492.366 50.348 492.509 50.6628C492.657 50.9747 492.875 51.2132 493.167 51.3773C493.457 51.5386 493.816 51.6187 494.243 51.6187ZM501.446 51.6187C501.925 51.6187 502.343 51.498 502.696 51.2566C503.053 51.0153 503.33 50.6754 503.526 50.237C503.722 49.7957 503.821 49.2811 503.821 48.692V48.6824C503.821 48.0905 503.722 47.5758 503.526 47.1375C503.352 46.7261 503.064 46.3728 502.696 46.1188C502.343 45.8774 501.925 45.7557 501.446 45.7557C501.057 45.7557 500.703 45.8474 500.384 46.029C500.083 46.1936 499.838 46.4444 499.681 46.7493H499.596V43.6073H498.682V51.5193H499.596V50.6155H499.681C499.856 50.9312 500.096 51.1775 500.401 51.3561C500.72 51.5349 501.08 51.6256 501.446 51.6187ZM501.236 50.8096C500.921 50.8179 500.61 50.7282 500.348 50.5527C500.09 50.3698 499.892 50.1162 499.775 49.8228C499.642 49.5041 499.575 49.1275 499.575 48.693V48.6824C499.575 48.244 499.642 47.8684 499.775 47.5527C499.908 47.2379 500.1 46.9945 500.348 46.8227C500.61 46.6469 500.92 46.5568 501.236 46.5649C501.583 46.5649 501.878 46.6518 502.123 46.8227C502.369 46.9907 502.556 47.2321 502.685 47.5469C502.819 47.8626 502.885 48.2411 502.885 48.6824V48.692C502.885 49.1304 502.819 49.5089 502.685 49.8276C502.573 50.1205 502.378 50.3742 502.123 50.5576C501.878 50.7256 501.583 50.8096 501.236 50.8096ZM505.292 51.5193H506.206V43.6073H505.292V51.5193ZM507.982 51.5193H508.895V45.8561H507.982V51.5193ZM508.444 44.7631C508.527 44.7645 508.609 44.749 508.686 44.7174C508.763 44.6859 508.832 44.639 508.89 44.5796C508.949 44.5212 508.996 44.4516 509.028 44.3748C509.059 44.2979 509.075 44.2156 509.074 44.1325C509.075 44.0496 509.06 43.9672 509.028 43.8905C508.997 43.8138 508.95 43.7443 508.89 43.6864C508.832 43.627 508.763 43.5801 508.686 43.5485C508.609 43.517 508.527 43.5015 508.444 43.503C508.361 43.5021 508.279 43.5179 508.202 43.5494C508.125 43.5809 508.056 43.6275 507.997 43.6864C507.938 43.7443 507.891 43.8138 507.859 43.8905C507.828 43.9672 507.812 44.0496 507.814 44.1325C507.813 44.2156 507.828 44.2979 507.86 44.3748C507.891 44.4516 507.938 44.5212 507.997 44.5796C508.124 44.7022 508.272 44.7631 508.444 44.7631ZM510.619 51.5193H511.533V48.0103C511.533 47.7438 511.589 47.5024 511.701 47.2852C511.817 47.0641 511.972 46.8893 512.168 46.7599C512.368 46.6296 512.59 46.5649 512.836 46.5649C513.193 46.5649 513.479 46.6662 513.692 46.87C513.906 47.0699 514.013 47.3373 514.013 47.6734V51.5193H514.927V47.879C514.927 47.6376 514.981 47.4184 515.089 47.2224C515.2 47.017 515.366 46.8466 515.568 46.7304C515.771 46.6143 516.001 46.5569 516.235 46.5649C516.634 46.5649 516.93 46.6711 517.123 46.8806C517.319 47.0872 517.417 47.3991 517.417 47.8153V51.5193H518.331V47.6058C518.331 47.2099 518.261 46.8748 518.121 46.6016C517.987 46.3324 517.772 46.1121 517.506 45.972C517.24 45.8272 516.914 45.7557 516.529 45.7557C516.27 45.7557 516.026 45.7982 515.799 45.8822C515.581 45.9595 515.379 46.0775 515.205 46.2298C515.036 46.3741 514.896 46.5507 514.796 46.7493H514.711C514.627 46.5571 514.507 46.3823 514.359 46.2337C514.21 46.0818 514.031 45.9622 513.834 45.8822C513.615 45.7954 513.381 45.7527 513.146 45.7567C512.775 45.7567 512.457 45.8397 512.195 46.0077C511.933 46.1787 511.731 46.4267 511.617 46.7174H511.533V45.8561H510.619V51.5193ZM522.293 51.6187C522.625 51.6187 522.924 51.5772 523.191 51.4932C523.46 51.4063 523.694 51.2904 523.89 51.1456C524.086 50.9988 524.245 50.8366 524.368 50.658C524.488 50.4877 524.577 50.2974 524.63 50.096L524.641 50.0535H523.727L523.705 50.1008C523.644 50.2284 523.557 50.3413 523.448 50.432C523.31 50.5494 523.151 50.6401 522.98 50.6995C522.766 50.7738 522.54 50.8094 522.313 50.8048C521.97 50.8048 521.673 50.7294 521.42 50.5788C521.165 50.4218 520.962 50.1935 520.837 49.9222C520.7 49.6354 520.632 49.2897 520.632 48.8871V48.526C520.632 48.1011 520.702 47.7438 520.842 47.4542C520.982 47.1635 521.172 46.9443 521.41 46.7976C521.656 46.6458 521.94 46.5674 522.229 46.5716C522.534 46.5716 522.803 46.6431 523.038 46.7869C523.273 46.927 523.457 47.1404 523.589 47.4281C523.723 47.7149 523.789 48.0808 523.789 48.526V48.8881L524.241 48.2218H520.17V48.9508H524.709V48.5936C524.709 48.0297 524.609 47.5362 524.409 47.1123C524.229 46.7037 523.933 46.3566 523.559 46.1139C523.191 45.8764 522.749 45.7567 522.235 45.7567C521.723 45.7567 521.277 45.8822 520.894 46.1303C520.507 46.3852 520.2 46.7439 520.007 47.1655C519.8 47.6067 519.697 48.1195 519.697 48.7046V48.7094C519.697 49.3013 519.8 49.816 520.007 50.2544C520.217 50.6889 520.515 51.0249 520.9 51.2624C521.288 51.5009 521.753 51.6187 522.293 51.6187ZM526.873 51.5714C526.963 51.573 527.053 51.5562 527.136 51.522C527.219 51.4878 527.294 51.4369 527.357 51.3725C527.421 51.3094 527.471 51.2341 527.505 51.1512C527.54 51.0683 527.557 50.9794 527.556 50.8897C527.558 50.7996 527.541 50.7102 527.507 50.6268C527.472 50.5434 527.422 50.468 527.357 50.405C527.294 50.3406 527.219 50.2897 527.136 50.2555C527.053 50.2213 526.963 50.2045 526.873 50.2061C526.784 50.2052 526.694 50.2224 526.611 50.2565C526.528 50.2907 526.453 50.3412 526.39 50.405C526.325 50.4678 526.274 50.5432 526.24 50.6263C526.206 50.7095 526.189 50.7988 526.191 50.8888C526.191 51.0742 526.257 51.2364 526.39 51.3716C526.453 51.4355 526.528 51.4862 526.611 51.5205C526.694 51.5549 526.783 51.5722 526.873 51.5714ZM531.428 51.6197C531.884 51.6197 532.272 51.5434 532.594 51.3928C532.917 51.2422 533.176 51.0355 533.372 50.7729C533.57 50.5022 533.71 50.193 533.782 49.8652L533.793 49.8073L532.889 49.8121L532.878 49.843C532.791 50.1348 532.607 50.3886 532.358 50.5634C532.117 50.7275 531.805 50.8096 531.423 50.8096C531.11 50.8166 530.803 50.7247 530.545 50.5469C530.287 50.3594 530.087 50.1026 529.968 49.8063C529.831 49.4848 529.762 49.1063 529.762 48.6718V48.6621C529.762 48.2344 529.829 47.8645 529.962 47.5527C530.099 47.2379 530.292 46.9945 530.541 46.8227C530.789 46.6508 531.083 46.5649 531.423 46.5649C531.83 46.5649 532.157 46.6634 532.405 46.8594C532.654 47.0554 532.814 47.2939 532.883 47.5739L532.889 47.5893H533.798L533.793 47.5585C533.738 47.2216 533.601 46.9033 533.395 46.6314C533.189 46.3594 532.919 46.142 532.61 45.9981C532.278 45.8368 531.882 45.7567 531.423 45.7567C530.894 45.7567 530.435 45.8774 530.046 46.1188C529.654 46.361 529.341 46.711 529.142 47.1268C528.933 47.5613 528.828 48.0731 528.828 48.6621V48.6718C528.828 49.2704 528.935 49.7909 529.148 50.2322C529.362 50.6734 529.663 51.0143 530.052 51.2566C530.44 51.498 530.9 51.6197 531.428 51.6197ZM537.459 51.6197C537.999 51.6197 538.463 51.5019 538.851 51.2673C539.241 51.0288 539.54 50.6908 539.75 50.2534C539.964 49.815 540.07 49.2955 540.07 48.693V48.6824C540.07 48.076 539.964 47.5546 539.75 47.1172C539.558 46.699 539.245 46.3477 538.851 46.1081C538.463 45.8735 537.999 45.7557 537.459 45.7557C536.923 45.7557 536.46 45.8735 536.068 46.1081C535.674 46.3482 535.359 46.6992 535.164 47.1172C534.953 47.5546 534.848 48.076 534.848 48.6814V48.693C534.848 49.2955 534.953 49.815 535.164 50.2534C535.377 50.6908 535.679 51.0288 536.068 51.2673C536.46 51.5019 536.923 51.6197 537.459 51.6197ZM537.459 50.8105C537.102 50.8105 536.8 50.7256 536.55 50.5576C536.293 50.3776 536.093 50.1258 535.978 49.8334C535.848 49.5176 535.784 49.1382 535.784 48.693V48.6824C535.784 48.2344 535.848 47.852 535.978 47.5372C536.111 47.2215 536.302 46.982 536.55 46.8169C536.8 46.6489 537.102 46.5658 537.459 46.5658C537.816 46.5658 538.12 46.6489 538.369 46.8169C538.617 46.981 538.806 47.2224 538.936 47.5372C539.069 47.852 539.135 48.2344 539.135 48.6824V48.692C539.135 49.1382 539.069 49.5176 538.936 49.8324C538.806 50.1482 538.617 50.3896 538.369 50.5576C538.12 50.7256 537.816 50.8096 537.459 50.8096V50.8105ZM541.488 51.5193H542.403V48.0103C542.403 47.7438 542.459 47.5024 542.571 47.2852C542.687 47.0641 542.842 46.8893 543.039 46.7599C543.237 46.6303 543.47 46.5625 543.706 46.5649C544.063 46.5649 544.349 46.6662 544.562 46.87C544.776 47.0699 544.883 47.3373 544.883 47.6734V51.5193H545.797V47.879C545.797 47.6376 545.851 47.4184 545.96 47.2224C546.068 47.0225 546.221 46.8632 546.417 46.7435C546.625 46.6213 546.864 46.5594 547.105 46.5649C547.504 46.5649 547.801 46.6711 547.993 46.8806C548.189 47.0872 548.287 47.3991 548.287 47.8153V51.5193H549.202V47.6058C549.202 47.2099 549.131 46.8748 548.991 46.6016C548.858 46.332 548.642 46.1116 548.376 45.972C548.11 45.8272 547.784 45.7557 547.399 45.7557C547.14 45.7557 546.897 45.7982 546.669 45.8822C546.451 45.9595 546.249 46.0775 546.075 46.2298C545.906 46.3744 545.767 46.5509 545.666 46.7493H545.582C545.497 46.5571 545.378 46.3823 545.229 46.2337C545.08 46.0816 544.901 45.9619 544.704 45.8822C544.485 45.7954 544.252 45.7527 544.016 45.7567C543.645 45.7567 543.328 45.8397 543.065 46.0077C542.804 46.1786 542.601 46.4266 542.487 46.7174H542.403V45.8561H541.488V51.5193Z" fill="#18181B"/>
</g>
</g>
</g>
</g>
</g>
<defs>
<filter id="filter0_dd_9_1040" x="0.101215" y="0.825912" width="1015.8" height="629.563" filterUnits="userSpaceOnUse" color-interpolation-filters="sRGB">
<feFlood flood-opacity="0" result="BackgroundImageFix"/>
<feColorMatrix in="SourceAlpha" type="matrix" values="0 0 0 0 0 0 0 0 0 0 0 0 0 0 0 0 0 0 127 0" result="hardAlpha"/>
<feMorphology radius="0.965587" operator="dilate" in="SourceAlpha" result="effect1_dropShadow_9_1040"/>
<feOffset/>
<feComposite in2="hardAlpha" operator="out"/>
<feColorMatrix type="matrix" values="0 0 0 0 0.0941176 0 0 0 0 0.0941176 0 0 0 0 0.105882 0 0 0 0.04 0"/>
<feBlend mode="normal" in2="BackgroundImageFix" result="effect1_dropShadow_9_1040"/>
<feColorMatrix in="SourceAlpha" type="matrix" values="0 0 0 0 0 0 0 0 0 0 0 0 0 0 0 0 0 0 127 0" result="hardAlpha"/>
<feOffset dy="7.7247"/>
<feGaussianBlur stdDeviation="15.4494"/>
<feComposite in2="hardAlpha" operator="out"/>
<feColorMatrix type="matrix" values="0 0 0 0 0.0941176 0 0 0 0 0.0941176 0 0 0 0 0.105882 0 0 0 0.06 0"/>
<feBlend mode="normal" in2="effect1_dropShadow_9_1040" result="effect2_dropShadow_9_1040"/>
<feBlend mode="normal" in="SourceGraphic" in2="effect2_dropShadow_9_1040" result="shape"/>
</filter>
<filter id="filter1_d_9_1040" x="434.615" y="279.881" width="146.769" height="108.146" filterUnits="userSpaceOnUse" color-interpolation-filters="sRGB">
<feFlood flood-opacity="0" result="BackgroundImageFix"/>
<feColorMatrix in="SourceAlpha" type="matrix" values="0 0 0 0 0 0 0 0 0 0 0 0 0 0 0 0 0 0 127 0" result="hardAlpha"/>
<feOffset dy="5.79352"/>
<feGaussianBlur stdDeviation="11.587"/>
<feComposite in2="hardAlpha" operator="out"/>
<feColorMatrix type="matrix" values="0 0 0 0 0.0941176 0 0 0 0 0.0941176 0 0 0 0 0.105882 0 0 0 0.08 0"/>
<feBlend mode="normal" in2="BackgroundImageFix" result="effect1_dropShadow_9_1040"/>
<feBlend mode="normal" in="SourceGraphic" in2="effect1_dropShadow_9_1040" result="shape"/>
</filter>
<filter id="filter2_d_9_1040" x="575.319" y="371.426" width="26.8777" height="30.4704" filterUnits="userSpaceOnUse" color-interpolation-filters="sRGB">
<feFlood flood-opacity="0" result="BackgroundImageFix"/>
<feColorMatrix in="SourceAlpha" type="matrix" values="0 0 0 0 0 0 0 0 0 0 0 0 0 0 0 0 0 0 127 0" result="hardAlpha"/>
<feOffset dy="1.28327"/>
<feGaussianBlur stdDeviation="1.92441"/>
<feColorMatrix type="matrix" values="0 0 0 0 0 0 0 0 0 0 0 0 0 0 0 0 0 0 0.35 0"/>
<feBlend mode="normal" in2="BackgroundImageFix" result="effect1_dropShadow_9_1040"/>
<feBlend mode="normal" in="SourceGraphic" in2="effect1_dropShadow_9_1040" result="shape"/>
</filter>
<filter id="filter3_d_9_1040" x="596.366" y="393.227" width="83.2954" height="32.7923" filterUnits="userSpaceOnUse" color-interpolation-filters="sRGB">
<feFlood flood-opacity="0" result="BackgroundImageFix"/>
<feColorMatrix in="SourceAlpha" type="matrix" values="0 0 0 0 0 0 0 0 0 0 0 0 0 0 0 0 0 0 127 0" result="hardAlpha"/>
<feOffset dy="1.28327"/>
<feGaussianBlur stdDeviation="2.56653"/>
<feColorMatrix type="matrix" values="0 0 0 0 0 0 0 0 0 0 0 0 0 0 0 0 0 0 0.16 0"/>
<feBlend mode="normal" in2="BackgroundImageFix" result="effect1_dropShadow_9_1040"/>
<feBlend mode="normal" in="SourceGraphic" in2="effect1_dropShadow_9_1040" result="shape"/>
</filter>
<clipPath id="clip0_9_1040">
<rect x="31" y="24" width="954" height="567.765" rx="15.4494" fill="white"/>
</clipPath>
<clipPath id="clip1_9_1040">
<rect x="31" y="24" width="954" height="567.765" rx="15.4494" fill="white"/>
</clipPath>
<clipPath id="clip2_9_1040">
<rect width="954" height="567.765" fill="white" transform="translate(31 24)"/>
</clipPath>
<clipPath id="clip3_9_1040">
<rect width="954" height="567.765" fill="white" transform="translate(31 24)"/>
</clipPath>
</defs>
</svg>
