<svg width="500" height="401" viewBox="0 0 500 401" fill="none" xmlns="http://www.w3.org/2000/svg">
<path d="M159 312.63H279V380.13C279 384.548 275.418 388.13 271 388.13H159V312.63Z" stroke="#EFEDE5"/>
<path d="M123.5 156.13V276.13H47.9998V164.13C47.9998 159.712 51.5815 156.13 55.9998 156.13H123.5Z" stroke="#EFEDE5"/>
<path d="M159 288.13V386.915C159 387.362 158.459 387.584 158.145 387.267L48.8444 276.982C48.5315 276.666 48.7551 276.13 49.1995 276.13H147C153.627 276.13 159 281.503 159 288.13Z" fill="#FEFDF4" fill-opacity="0.1"/>
<path d="M159 288.13V386.915C159 387.362 158.459 387.584 158.145 387.267L48.8444 276.982C48.5315 276.666 48.7551 276.13 49.1995 276.13H147C153.627 276.13 159 281.503 159 288.13Z" stroke="#7C714E" stroke-opacity="0.12"/>
</svg>
