<svg width="500" height="401" viewBox="0 0 500 401" fill="none" xmlns="http://www.w3.org/2000/svg">
<path d="M341 312.63H221V380.13C221 384.548 224.582 388.13 229 388.13H341V312.63Z" stroke="#E7ECE7"/>
<path d="M376.5 156.13V276.13H452V164.13C452 159.712 448.419 156.13 444 156.13H376.5Z" stroke="#E5EFE7"/>
<path d="M341 288.13V386.915C341 387.362 341.541 387.584 341.855 387.267L451.156 276.982C451.468 276.666 451.245 276.13 450.801 276.13H353C346.373 276.13 341 281.503 341 288.13Z" fill="#F2FFF4" fill-opacity="0.1"/>
<path d="M341 288.13V386.915C341 387.362 341.541 387.584 341.855 387.267L451.156 276.982C451.468 276.666 451.245 276.13 450.801 276.13H353C346.373 276.13 341 281.503 341 288.13Z" stroke="#E7ECE7"/>
</svg>
