<svg width="25" height="25" viewBox="0 0 25 25" fill="none" xmlns="http://www.w3.org/2000/svg">
<g clip-path="url(#clip0_9_28)">
<path d="M12.63 20.05C10.6409 20.05 8.73323 19.2598 7.3267 17.8533C5.92018 16.4468 5.13 14.5391 5.13 12.55C5.13 10.5609 5.92018 8.65321 7.3267 7.24669C8.73323 5.84016 10.6409 5.04999 12.63 5.04999C14.6191 5.04999 16.5268 5.84016 17.9333 7.24669C19.3398 8.65321 20.13 10.5609 20.13 12.55C20.13 14.5391 19.3398 16.4468 17.9333 17.8533C16.5268 19.2598 14.6191 20.05 12.63 20.05ZM11.882 15.55L17.185 10.247L16.125 9.18699L11.882 13.429L9.76 11.307L8.7 12.367L11.882 15.55Z" fill="#18181B"/>
</g>
<defs>
<clipPath id="clip0_9_28">
<rect width="24" height="24" fill="white" transform="translate(0.630005 0.549988)"/>
</clipPath>
</defs>
</svg>
