<svg width="44" height="45" viewBox="0 0 44 45" fill="none" xmlns="http://www.w3.org/2000/svg">
<g clip-path="url(#clip0_9_71)">
<g clip-path="url(#clip1_9_71)">
<g clip-path="url(#clip2_9_71)">
<mask id="mask0_9_71" style="mask-type:luminance" maskUnits="userSpaceOnUse" x="0" y="0" width="44" height="45">
<path d="M0 0.340088H44V44.3401H0V0.340088Z" fill="white"/>
</mask>
<g mask="url(#mask0_9_71)">
<path d="M9.367 19.2461C10.0506 19.2456 10.706 18.9738 11.1893 18.4904C11.6727 18.0071 11.9445 17.3517 11.945 16.6681C11.9445 15.9845 11.6727 15.3291 11.1893 14.8458C10.706 14.3624 10.0506 14.0906 9.367 14.0901C8.68352 14.0909 8.02825 14.3627 7.54496 14.846C7.06166 15.3293 6.7898 15.9846 6.789 16.6681C6.7898 17.3516 7.06166 18.0068 7.54496 18.4901C8.02825 18.9734 8.68352 19.2453 9.367 19.2461ZM9.367 15.8091C9.47994 15.8092 9.59176 15.8315 9.69607 15.8747C9.80039 15.918 9.89515 15.9814 9.97497 16.0613C10.0548 16.1412 10.1181 16.2361 10.1612 16.3404C10.2044 16.4448 10.2266 16.5567 10.2265 16.6696C10.2264 16.7825 10.2041 16.8943 10.1608 16.9987C10.1176 17.103 10.0542 17.1977 9.97426 17.2776C9.89436 17.3574 9.79951 17.4207 9.69515 17.4638C9.59078 17.507 9.47894 17.5292 9.366 17.5291C9.13792 17.529 8.91922 17.4382 8.75804 17.2768C8.59685 17.1155 8.50637 16.8967 8.5065 16.6686C8.50663 16.4405 8.59737 16.2218 8.75874 16.0606C8.92012 15.8994 9.13891 15.809 9.367 15.8091ZM18.82 16.6681C18.8195 15.9845 18.5477 15.3291 18.0643 14.8458C17.581 14.3624 16.9256 14.0906 16.242 14.0901C15.5584 14.0906 14.903 14.3624 14.4197 14.8458C13.9363 15.3291 13.6645 15.9845 13.664 16.6681C13.6645 17.3517 13.9363 18.0071 14.4197 18.4904C14.903 18.9738 15.5584 19.2456 16.242 19.2461C16.9256 19.2456 17.581 18.9738 18.0643 18.4904C18.5477 18.0071 18.8195 17.3517 18.82 16.6681ZM15.383 16.6681C15.3833 16.44 15.4741 16.2214 15.6356 16.0603C15.7971 15.8992 16.0159 15.8088 16.244 15.8091C16.4721 15.8094 16.6907 15.9002 16.8518 16.0617C17.0129 16.2232 17.1033 16.442 17.103 16.6701C17.1029 16.783 17.0805 16.8948 17.0372 16.9991C16.9938 17.1034 16.9304 17.1981 16.8504 17.2779C16.7705 17.3577 16.6756 17.4209 16.5712 17.464C16.4668 17.5071 16.3549 17.5292 16.242 17.5291C16.1291 17.529 16.0173 17.5066 15.913 17.4632C15.8087 17.4199 15.7139 17.3564 15.6342 17.2765C15.5544 17.1965 15.4912 17.1017 15.4481 16.9973C15.405 16.8929 15.3829 16.781 15.383 16.6681ZM25.695 16.6681C25.6945 15.9845 25.4227 15.3291 24.9393 14.8458C24.456 14.3624 23.8006 14.0906 23.117 14.0901C22.4334 14.0906 21.778 14.3624 21.2947 14.8458C20.8113 15.3291 20.5395 15.9845 20.539 16.6681C20.5395 17.3517 20.8113 18.0071 21.2947 18.4904C21.778 18.9738 22.4334 19.2456 23.117 19.2461C23.8006 19.2456 24.456 18.9738 24.9393 18.4904C25.4227 18.0071 25.6945 17.3517 25.695 16.6681ZM22.258 16.6681C22.2583 16.44 22.3491 16.2214 22.5106 16.0603C22.6721 15.8992 22.8909 15.8088 23.119 15.8091C23.3471 15.8094 23.5657 15.9002 23.7268 16.0617C23.8879 16.2232 23.9783 16.442 23.978 16.6701C23.9779 16.783 23.9555 16.8948 23.9122 16.9991C23.8688 17.1034 23.8054 17.1981 23.7254 17.2779C23.6455 17.3577 23.5506 17.4209 23.4462 17.464C23.3418 17.5071 23.2299 17.5292 23.117 17.5291C23.0041 17.529 22.8923 17.5066 22.788 17.4632C22.6837 17.4199 22.5889 17.3564 22.5092 17.2765C22.4294 17.1965 22.3662 17.1017 22.3231 16.9973C22.28 16.8929 22.2579 16.781 22.258 16.6681Z" fill="#18181B"/>
<path d="M31.973 12.2821C30.073 5.46609 23.822 0.340088 16.242 0.340088C13.549 0.340088 10.882 1.00909 8.52499 2.27509C8.42059 2.32561 8.32749 2.39673 8.25129 2.48417C8.17509 2.5716 8.11736 2.67355 8.08157 2.78387C8.04579 2.8942 8.03269 3.01062 8.04307 3.12614C8.05345 3.24166 8.08708 3.35388 8.14195 3.45606C8.19682 3.55824 8.27179 3.64827 8.36236 3.72073C8.45292 3.79319 8.55721 3.84658 8.66894 3.87769C8.78067 3.9088 8.89754 3.91699 9.01252 3.90176C9.1275 3.88653 9.23821 3.84821 9.33799 3.78909C11.4616 2.65316 13.8327 2.05892 16.241 2.05909C18.1607 2.05513 20.0623 2.43033 21.8367 3.16315C23.611 3.89598 25.2232 4.97199 26.5806 6.32944C27.9381 7.68689 29.0141 9.29906 29.7469 11.0734C30.4797 12.8478 30.8549 14.7494 30.851 16.6691C30.851 24.7241 24.297 31.2771 16.241 31.2771H2.84799L5.91199 28.2141C6.07321 28.0528 6.16377 27.8341 6.16377 27.6061C6.16377 27.3781 6.07321 27.1594 5.91199 26.9981C4.55101 25.6448 3.47196 24.0349 2.73729 22.2618C2.00263 20.4886 1.62695 18.5874 1.63199 16.6681C1.63199 13.5291 2.61299 10.5381 4.46699 8.01809C4.5894 7.83403 4.63623 7.60991 4.59777 7.39224C4.55932 7.17456 4.43852 6.98006 4.26046 6.84908C4.0824 6.71811 3.86074 6.66073 3.64149 6.68885C3.42225 6.71696 3.22224 6.82842 3.08299 7.00009C1.01597 9.79889 -0.0951674 13.1888 -0.0860063 16.6681C-0.0977307 20.7037 1.39632 24.5986 4.10399 27.5911L0.166994 31.5291C0.0471674 31.6494 -0.0343835 31.8024 -0.0673837 31.9689C-0.100384 32.1355 -0.0833572 32.308 -0.0184486 32.4649C0.0464599 32.6218 0.156346 32.7559 0.297365 32.8504C0.438383 32.945 0.604225 32.9956 0.773994 32.9961H12.034C14.134 39.5381 20.258 44.3401 27.586 44.3401H43.055C43.2248 44.3396 43.3906 44.289 43.5316 44.1944C43.6726 44.0999 43.7825 43.9658 43.8474 43.8089C43.9123 43.652 43.9294 43.4795 43.8964 43.3129C43.8634 43.1464 43.7818 42.9934 43.662 42.8731L39.724 38.9341C42.4314 35.9419 43.9255 32.0474 43.914 28.0121C43.914 20.4221 38.778 14.1791 31.973 12.2821ZM37.916 38.3421C37.7548 38.5034 37.6642 38.7221 37.6642 38.9501C37.6642 39.1781 37.7548 39.3968 37.916 39.5581L40.98 42.6211H27.586C21.418 42.6211 15.924 38.7171 13.849 32.9961H16.242C25.245 32.9961 32.57 25.6711 32.57 16.6681C32.57 15.8431 32.508 15.0201 32.386 14.2081C35.2559 15.1995 37.7443 17.063 39.5032 19.538C41.2621 22.013 42.2036 24.9758 42.196 28.0121C42.196 31.9141 40.676 35.5831 37.916 38.3421Z" fill="#18181B"/>
<path d="M6.10199 4.12109C5.98905 4.12109 5.87722 4.14334 5.77288 4.18656C5.66854 4.22978 5.57374 4.29312 5.49388 4.37298C5.41402 4.45284 5.35067 4.54765 5.30745 4.65199C5.26423 4.75633 5.24199 4.86816 5.24199 4.98109C5.24199 5.09403 5.26423 5.20586 5.30745 5.3102C5.35067 5.41454 5.41402 5.50935 5.49388 5.58921C5.57374 5.66906 5.66854 5.73241 5.77288 5.77563C5.87722 5.81885 5.98905 5.84109 6.10199 5.84109C6.33008 5.84109 6.54882 5.75049 6.7101 5.58921C6.87138 5.42792 6.96199 5.20918 6.96199 4.98109C6.96199 4.75301 6.87138 4.53426 6.7101 4.37298C6.54882 4.2117 6.33008 4.12109 6.10199 4.12109Z" fill="#18181B"/>
</g>
</g>
</g>
</g>
<defs>
<clipPath id="clip0_9_71">
<rect width="44" height="44" fill="white" transform="translate(0 0.340088)"/>
</clipPath>
<clipPath id="clip1_9_71">
<rect width="44" height="44" fill="white" transform="translate(0 0.340088)"/>
</clipPath>
<clipPath id="clip2_9_71">
<rect width="44" height="44" fill="white" transform="translate(0 0.340088)"/>
</clipPath>
</defs>
</svg>
