<svg width="44" height="45" viewBox="0 0 44 45" fill="none" xmlns="http://www.w3.org/2000/svg">
<g clip-path="url(#clip0_9_127)">
<g clip-path="url(#clip1_9_127)">
<g clip-path="url(#clip2_9_127)">
<mask id="mask0_9_127" style="mask-type:luminance" maskUnits="userSpaceOnUse" x="0" y="0" width="44" height="45">
<path d="M0 0.72998H44V44.73H0V0.72998Z" fill="white"/>
</mask>
<g mask="url(#mask0_9_127)">
<path d="M22 13.5349C22.2232 13.5348 22.4375 13.4479 22.5978 13.2927C22.7581 13.1374 22.8517 12.926 22.859 12.7029V12.6749C22.859 12.5048 22.8085 12.3385 22.714 12.197C22.6195 12.0556 22.4851 11.9454 22.3279 11.8803C22.1707 11.8152 21.9977 11.7983 21.8309 11.8315C21.664 11.8648 21.5108 11.9468 21.3905 12.0672C21.2703 12.1876 21.1885 12.3409 21.1554 12.5078C21.1223 12.6747 21.1395 12.8476 21.2048 13.0047C21.27 13.1619 21.3804 13.2961 21.5219 13.3905C21.6635 13.4849 21.8299 13.5351 22 13.5349Z" fill="#18181B"/>
<path d="M22 44.73C31.938 44.73 40.305 36.44 40.305 26.425C40.305 23.077 39.364 19.808 37.577 16.925L38.665 15.837C39.0643 15.4381 39.381 14.9644 39.5971 14.4431C39.8132 13.9217 39.9245 13.3629 39.9245 12.7985C39.9245 12.2341 39.8132 11.6753 39.5971 11.1539C39.381 10.6325 39.0643 10.1589 38.665 9.75998C38.2661 9.36071 37.7925 9.04397 37.2711 8.82786C36.7497 8.61176 36.1909 8.50053 35.6265 8.50053C35.0621 8.50053 34.5033 8.61176 33.9819 8.82786C33.4605 9.04397 32.9869 9.36071 32.588 9.75998L31.5 10.85C29.8917 9.84866 28.1364 9.10565 26.298 8.64798V5.88598H27.158C27.8416 5.88545 28.497 5.61367 28.9803 5.13032C29.4637 4.64696 29.7355 3.99155 29.736 3.30798C29.7355 2.62424 29.4636 1.96867 28.98 1.48529C28.4964 1.00191 27.8407 0.730245 27.157 0.72998L16.843 0.72998C16.1594 0.73051 15.504 1.00229 15.0207 1.48564C14.5373 1.969 14.2655 2.62441 14.265 3.30798C14.2655 3.99155 14.5373 4.64696 15.0207 5.13032C15.504 5.61367 16.1594 5.88545 16.843 5.88598H17.703V8.64798C15.8642 9.10547 14.1086 9.8485 12.5 10.85L11.412 9.75998C11.0131 9.36071 10.5395 9.04397 10.0181 8.82786C9.49672 8.61176 8.93788 8.50053 8.3735 8.50053C7.80912 8.50053 7.25027 8.61176 6.72891 8.82786C6.20754 9.04397 5.73388 9.36071 5.335 9.75998C4.93573 10.1589 4.61899 10.6325 4.40288 11.1539C4.18678 11.6753 4.07555 12.2341 4.07555 12.7985C4.07555 13.3629 4.18678 13.9217 4.40288 14.4431C4.61899 14.9644 4.93573 15.4381 5.335 15.837L6.423 16.925C4.637 19.808 3.696 23.077 3.696 26.425C3.696 36.363 11.985 44.73 22 44.73ZM22 43.011C13.01 43.011 5.414 35.416 5.414 26.425C5.414 17.415 12.971 9.83998 22 9.83998C30.995 9.83998 38.586 17.385 38.586 26.426C38.586 35.416 30.991 43.012 22 43.012V43.011ZM37.45 10.976C37.6895 11.2153 37.8796 11.4995 38.0092 11.8123C38.1388 12.1251 38.2056 12.4604 38.2056 12.799C38.2056 13.1376 38.1388 13.4729 38.0092 13.7857C37.8796 14.0985 37.6895 14.3827 37.45 14.622L36.587 15.484C35.5463 14.1057 34.3192 12.8787 32.941 11.838L33.804 10.976C34.0433 10.7363 34.3274 10.5462 34.6402 10.4165C34.953 10.2868 35.2884 10.22 35.627 10.22C35.9656 10.22 36.301 10.2868 36.6138 10.4165C36.9266 10.5462 37.2107 10.7363 37.45 10.976ZM15.985 3.30798C15.985 3.08007 16.0755 2.86147 16.2365 2.70022C16.3976 2.53897 16.6161 2.44825 16.844 2.44798H27.157C27.3851 2.44798 27.6038 2.53859 27.7651 2.69987C27.9264 2.86115 28.017 3.07989 28.017 3.30798C28.017 3.53607 27.9264 3.75481 27.7651 3.91609C27.6038 4.07737 27.3851 4.16798 27.157 4.16798H16.843C16.6149 4.16798 16.3962 4.07737 16.2349 3.91609C16.0736 3.75481 15.983 3.53607 15.983 3.30798H15.985ZM24.578 5.88598V8.30998C22.8683 8.06158 21.1317 8.06158 19.422 8.30998V5.88598H24.578ZM6.551 10.976C6.79026 10.7363 7.07442 10.5462 7.38723 10.4165C7.70004 10.2868 8.03536 10.22 8.374 10.22C8.71264 10.22 9.04796 10.2868 9.36077 10.4165C9.67358 10.5462 9.95774 10.7363 10.197 10.976L11.059 11.838C9.68077 12.8787 8.45372 14.1057 7.413 15.484L6.551 14.622C6.31135 14.3827 6.12122 14.0986 5.9915 13.7857C5.86178 13.4729 5.79501 13.1376 5.79501 12.799C5.79501 12.4603 5.86178 12.125 5.9915 11.8122C6.12122 11.4994 6.31135 11.2152 6.551 10.976Z" fill="#18181B"/>
<path d="M25.625 12.2699C25.5156 12.2419 25.4018 12.2357 25.29 12.2516C25.1782 12.2676 25.0706 12.3054 24.9734 12.3629C24.8763 12.4205 24.7914 12.4966 24.7236 12.5869C24.6558 12.6772 24.6065 12.78 24.5785 12.8894C24.5505 12.9988 24.5442 13.1127 24.5602 13.2244C24.5762 13.3362 24.614 13.4438 24.6715 13.541C24.729 13.6381 24.8051 13.723 24.8955 13.7908C24.9858 13.8586 25.0886 13.9079 25.198 13.9359C27.1541 14.4379 28.9635 15.396 30.478 16.7319L28.684 18.5259C28.5347 18.6895 28.4543 18.9043 28.4595 19.1256C28.4646 19.347 28.5549 19.5578 28.7116 19.7142C28.8683 19.8707 29.0793 19.9606 29.3007 19.9654C29.522 19.9702 29.7367 19.8894 29.9 19.7399L31.69 17.9499C33.5498 20.0742 34.6638 22.7485 34.862 25.5649H32.313C32.1967 25.5593 32.0805 25.5774 31.9714 25.618C31.8623 25.6586 31.7626 25.721 31.6783 25.8013C31.594 25.8816 31.5269 25.9782 31.481 26.0853C31.4352 26.1923 31.4115 26.3075 31.4115 26.4239C31.4115 26.5403 31.4352 26.6556 31.481 26.7626C31.5269 26.8696 31.594 26.9662 31.6783 27.0465C31.7626 27.1268 31.8623 27.1892 31.9714 27.2298C32.0805 27.2705 32.1967 27.2885 32.313 27.2829H34.863C34.6839 30.107 33.5769 32.7928 31.714 34.9229L29.9 33.1089C29.7369 32.9569 29.5212 32.8741 29.2983 32.878C29.0754 32.882 28.8627 32.9723 28.7051 33.13C28.5475 33.2877 28.4574 33.5005 28.4536 33.7234C28.4498 33.9463 28.5328 34.162 28.685 34.3249L30.499 36.1399C28.3686 38.002 25.6828 39.1083 22.859 39.2869V36.7369C22.8646 36.6206 22.8466 36.5044 22.8059 36.3953C22.7653 36.2862 22.7029 36.1865 22.6226 36.1022C22.5423 36.0179 22.4457 35.9508 22.3387 35.905C22.2316 35.8591 22.1164 35.8355 22 35.8355C21.8836 35.8355 21.7684 35.8591 21.6613 35.905C21.5543 35.9508 21.4577 36.0179 21.3774 36.1022C21.2971 36.1865 21.2347 36.2862 21.1941 36.3953C21.1534 36.5044 21.1354 36.6206 21.141 36.7369V39.2869C18.3172 39.1084 15.6314 38.0021 13.501 36.1399L15.316 34.3249C15.4682 34.162 15.5511 33.9463 15.5474 33.7234C15.5436 33.5005 15.4535 33.2877 15.2959 33.13C15.1383 32.9723 14.9256 32.882 14.7027 32.878C14.4798 32.8741 14.2641 32.9569 14.101 33.1089L12.286 34.9239C10.4239 32.7936 9.31755 30.1078 9.139 27.2839H11.688C11.8043 27.2895 11.9205 27.2715 12.0296 27.2308C12.1387 27.1902 12.2384 27.1278 12.3227 27.0475C12.407 26.9672 12.4741 26.8706 12.52 26.7636C12.5658 26.6566 12.5895 26.5413 12.5895 26.4249C12.5895 26.3085 12.5658 26.1933 12.52 26.0863C12.4741 25.9792 12.407 25.8826 12.3227 25.8023C12.2384 25.722 12.1387 25.6596 12.0296 25.619C11.9205 25.5784 11.8043 25.5603 11.688 25.5659H9.139C9.33676 22.7493 10.4504 20.0746 12.31 17.9499L14.101 19.7409C14.2644 19.8903 14.4792 19.9709 14.7005 19.9659C14.9219 19.961 15.1328 19.8708 15.2893 19.7143C15.4459 19.5577 15.536 19.3468 15.541 19.1254C15.546 18.9041 15.4654 18.6893 15.316 18.5259L13.523 16.7319C15.0375 15.396 16.8469 14.4379 18.803 13.9359C18.9159 13.9113 19.0226 13.8641 19.1169 13.7973C19.2112 13.7305 19.291 13.6453 19.3516 13.547C19.4123 13.4486 19.4524 13.339 19.4698 13.2248C19.4871 13.1106 19.4813 12.994 19.4526 12.8821C19.4239 12.7702 19.3729 12.6652 19.3027 12.5734C19.2325 12.4816 19.1446 12.4049 19.0441 12.3478C18.9436 12.2908 18.8327 12.2546 18.7179 12.2414C18.6031 12.2281 18.4868 12.2382 18.376 12.2709C12.036 13.8939 7.397 19.6609 7.392 26.4159V26.4379C7.397 34.4999 13.955 41.0349 22 41.0349C30.028 41.0349 36.603 34.5209 36.61 26.4379V26.4149C36.603 19.6809 31.994 13.9019 25.625 12.2709V12.2699Z" fill="#18181B"/>
<path d="M19.422 26.4249C19.4225 27.1085 19.6943 27.7639 20.1777 28.2473C20.661 28.7306 21.3164 29.0024 22 29.0029C23.12 29.0029 24.076 28.2849 24.43 27.2849H27.157C27.3851 27.2849 27.6038 27.1943 27.7651 27.0331C27.9264 26.8718 28.017 26.653 28.017 26.4249C28.017 26.1969 27.9264 25.9781 27.7651 25.8168C27.6038 25.6555 27.3851 25.5649 27.157 25.5649H24.43C24.3008 25.2032 24.0929 24.8747 23.8212 24.6031C23.5495 24.3316 23.2208 24.1239 22.859 23.9949V19.5499C22.859 19.3219 22.7684 19.1031 22.6071 18.9418C22.4458 18.7805 22.2271 18.6899 21.999 18.6899C21.7709 18.6899 21.5522 18.7805 21.3909 18.9418C21.2296 19.1031 21.139 19.3219 21.139 19.5499V23.9949C20.6369 24.1732 20.2023 24.5025 19.8947 24.9375C19.5871 25.3726 19.4217 25.8921 19.421 26.4249H19.422ZM22 25.5649C22.2284 25.5649 22.4474 25.6557 22.6088 25.8171C22.7703 25.9786 22.861 26.1976 22.861 26.4259C22.861 26.6543 22.7703 26.8733 22.6088 27.0348C22.4474 27.1962 22.2284 27.2869 22 27.2869C21.7719 27.2868 21.5532 27.1961 21.392 27.0347C21.2309 26.8733 21.1404 26.6545 21.1405 26.4264C21.1406 26.1984 21.2314 25.9797 21.3927 25.8185C21.5541 25.6573 21.7729 25.5668 22.001 25.5669L22 25.5649Z" fill="#18181B"/>
</g>
</g>
</g>
</g>
<defs>
<clipPath id="clip0_9_127">
<rect width="44" height="44" fill="white" transform="translate(0 0.72998)"/>
</clipPath>
<clipPath id="clip1_9_127">
<rect width="44" height="44" fill="white" transform="translate(0 0.72998)"/>
</clipPath>
<clipPath id="clip2_9_127">
<rect width="44" height="44" fill="white" transform="translate(0 0.72998)"/>
</clipPath>
</defs>
</svg>
