<svg width="44" height="45" viewBox="0 0 44 45" fill="none" xmlns="http://www.w3.org/2000/svg">
<g clip-path="url(#clip0_9_148)">
<g clip-path="url(#clip1_9_148)">
<mask id="mask0_9_148" style="mask-type:luminance" maskUnits="userSpaceOnUse" x="0" y="0" width="44" height="45">
<path d="M0 0.72998H44V44.73H0V0.72998Z" fill="white"/>
</mask>
<g mask="url(#mask0_9_148)">
<path d="M22 26.9769C20.8608 26.9783 19.7686 27.4314 18.963 28.237C18.1575 29.0425 17.7043 30.1347 17.703 31.2739C17.7046 32.413 18.1579 33.5049 18.9634 34.3103C19.7689 35.1156 20.8609 35.5686 22 35.5699C23.1392 35.5686 24.2314 35.1155 25.037 34.3099C25.8425 33.5043 26.2957 32.4122 26.297 31.2729C26.2952 30.134 25.8418 29.0424 25.0363 28.2372C24.2308 27.4321 23.1389 26.9783 22 26.9769ZM22 33.8519C21.3164 33.8514 20.661 33.5796 20.1777 33.0963C19.6943 32.6129 19.4225 31.9575 19.422 31.2739C19.4223 30.5902 19.6939 29.9345 20.1773 29.4509C20.6607 28.9674 21.3163 28.6955 22 28.6949C22.6837 28.6955 23.3393 28.9674 23.8227 29.4509C24.3061 29.9345 24.5777 30.5902 24.578 31.2739C24.5775 31.9575 24.3057 32.6129 23.8223 33.0963C23.339 33.5796 22.6836 33.8514 22 33.8519Z" fill="#18181B"/>
<path d="M36.598 13.5799C36.4761 10.8991 35.3934 8.35161 33.5479 6.40327C31.7024 4.45494 29.2173 3.23587 26.547 2.96893C26.3236 2.95317 26.1029 3.02514 25.9318 3.16956C25.7607 3.31397 25.6526 3.51943 25.6306 3.74227C25.6086 3.9651 25.6744 4.18773 25.8139 4.36283C25.9535 4.53793 26.1559 4.65169 26.378 4.67993C28.7417 4.90568 30.9325 6.01762 32.51 7.79234C34.0875 9.56705 34.9349 11.873 34.882 14.2469C34.8792 14.4476 34.9467 14.6428 35.0727 14.799C35.1987 14.9551 35.3753 15.0623 35.572 15.1019C38.87 15.7679 42.282 18.7849 42.282 22.6809C42.282 26.8009 38.426 30.4149 34.032 30.4149H30.54C30.4993 30.0814 30.4392 29.7505 30.36 29.4239L32.219 28.3509C32.4162 28.2368 32.56 28.049 32.6189 27.8289C32.6777 27.6088 32.6469 27.3743 32.533 27.1769L30.815 24.1999C30.701 24.0026 30.5133 23.8585 30.2932 23.7995C30.0731 23.7404 29.8385 23.7712 29.641 23.8849L27.787 24.9549C26.8668 24.1056 25.7708 23.4692 24.577 23.0909V20.9609C24.5767 20.733 24.486 20.5145 24.3248 20.3535C24.1635 20.1924 23.9449 20.1019 23.717 20.1019H20.28C20.0519 20.1019 19.8332 20.1925 19.6719 20.3538C19.5106 20.5151 19.42 20.7338 19.42 20.9619V23.0919C18.2265 23.4698 17.1309 24.1059 16.211 24.9549L14.358 23.8849C14.1605 23.7712 13.9259 23.7404 13.7058 23.7995C13.4857 23.8585 13.298 24.0026 13.184 24.1999L11.464 27.1769C11.3502 27.3744 11.3195 27.609 11.3786 27.8291C11.4376 28.0492 11.5816 28.2369 11.779 28.3509L13.638 29.4239C13.556 29.7639 13.497 30.0939 13.458 30.4139H8.594C6.77146 30.4118 5.02416 29.6869 3.73533 28.3983C2.44651 27.1097 1.72138 25.3625 1.719 23.5399C1.719 20.1999 4.695 17.1519 8.353 16.7459C8.46814 16.7332 8.57953 16.6974 8.6805 16.6406C8.78146 16.5838 8.86994 16.5072 8.94061 16.4155C9.01129 16.3237 9.06272 16.2186 9.09183 16.1065C9.12093 15.9943 9.12711 15.8775 9.11 15.7629C9.12263 14.6313 9.58062 13.5503 10.3847 12.754C11.1889 11.9578 12.2743 11.5104 13.406 11.5089C14.013 11.5089 14.616 11.6449 15.198 11.9139C15.3098 11.9655 15.4314 11.9925 15.5546 11.993C15.6777 11.9935 15.7995 11.9676 15.9118 11.917C16.024 11.8663 16.1241 11.7922 16.2052 11.6995C16.2864 11.6069 16.3466 11.4979 16.382 11.3799C17.0319 9.21145 18.4366 7.34729 20.342 6.12493C20.4427 6.06671 20.5305 5.98868 20.6001 5.89557C20.6697 5.80245 20.7198 5.69618 20.7472 5.58318C20.7746 5.47017 20.7788 5.35279 20.7595 5.23811C20.7403 5.12344 20.698 5.01386 20.6352 4.916C20.5724 4.81814 20.4904 4.73404 20.3941 4.66877C20.2979 4.6035 20.1894 4.55842 20.0753 4.53626C19.9611 4.5141 19.8437 4.51532 19.73 4.53984C19.6164 4.56436 19.5089 4.61168 19.414 4.67893C17.4276 5.95403 15.8947 7.82398 15.034 10.0219C14.505 9.86809 13.9569 9.78999 13.406 9.78993C11.9244 9.79175 10.4955 10.3395 9.39227 11.3285C8.28909 12.3175 7.58906 13.6783 7.426 15.1509C3.377 15.9499 0 19.4099 0 23.5399C0 28.2789 3.855 32.1339 8.594 32.1339H13.459C13.498 32.4549 13.557 32.7839 13.639 33.1249L11.78 34.1979C11.5828 34.3121 11.439 34.4999 11.3801 34.72C11.3213 34.9401 11.3521 35.1746 11.466 35.3719L13.184 38.3489C13.2982 38.5461 13.4859 38.6899 13.706 38.7488C13.9262 38.8077 14.1606 38.7768 14.358 38.6629L16.212 37.5929C17.1323 38.4423 18.2282 39.0787 19.422 39.4569V41.5869C19.422 42.0609 19.807 42.4469 20.282 42.4469H23.719C23.9471 42.4469 24.1658 42.3563 24.3271 42.195C24.4884 42.0338 24.579 41.815 24.579 41.5869V39.4569C25.7725 39.0787 26.8681 38.4423 27.788 37.5929L29.641 38.6629C29.8384 38.7768 30.0728 38.8077 30.293 38.7488C30.5131 38.6899 30.7008 38.5461 30.815 38.3489L32.535 35.3719C32.6488 35.1744 32.6795 34.9399 32.6204 34.7197C32.5614 34.4996 32.4174 34.3119 32.22 34.1979L30.362 33.1249C30.443 32.7849 30.502 32.4549 30.541 32.1339H34.031C39.172 32.1339 44 27.9799 44 22.6809C44 18.3819 40.66 14.7049 36.598 13.5799ZM30.616 35.2559L29.756 36.7439L28.078 35.7739C27.9095 35.6767 27.7129 35.6396 27.5205 35.6687C27.3281 35.6978 27.1513 35.7913 27.019 35.9339C26.0859 36.9462 24.8687 37.6531 23.527 37.9619C23.3372 38.0054 23.1679 38.1119 23.0465 38.2642C22.9252 38.4164 22.8591 38.6053 22.859 38.7999V40.7259H21.141V38.7999C21.1409 38.6053 21.0748 38.4164 20.9535 38.2642C20.8321 38.1119 20.6628 38.0054 20.473 37.9619C19.1312 37.6534 17.914 36.9464 16.981 35.9339C16.8486 35.791 16.6716 35.6974 16.479 35.6683C16.2864 35.6392 16.0896 35.6765 15.921 35.7739L14.243 36.7439L13.384 35.2559L15.073 34.2799C15.2415 34.1824 15.372 34.0306 15.443 33.8493C15.514 33.668 15.5214 33.468 15.464 33.2819C15.233 32.5339 15.125 31.8959 15.125 31.2729C15.125 30.6509 15.233 30.0129 15.465 29.2649C15.5223 29.0788 15.5148 28.8787 15.4436 28.6974C15.3724 28.5161 15.2417 28.3643 15.073 28.2669L13.384 27.2909L14.244 25.8029L15.922 26.7719C16.0907 26.8692 16.2874 26.9064 16.48 26.8773C16.6725 26.8482 16.8495 26.7547 16.982 26.6119C17.9146 25.6001 19.131 24.8936 20.472 24.5849C20.662 24.5418 20.8317 24.4354 20.9533 24.2831C21.0749 24.1309 21.1411 23.9418 21.141 23.7469V21.8199H22.859V23.7469C22.859 24.1469 23.137 24.4949 23.527 24.5849C24.8686 24.8934 26.0858 25.5999 27.019 26.6119C27.1515 26.7547 27.3285 26.8482 27.521 26.8773C27.7136 26.9064 27.9103 26.8692 28.079 26.7719L29.757 25.8019L30.617 27.2909L28.927 28.2669C28.7585 28.3645 28.628 28.5163 28.557 28.6976C28.486 28.8789 28.4786 29.0789 28.536 29.2649C28.767 30.0119 28.875 30.6509 28.875 31.2729C28.875 31.8959 28.767 32.5339 28.535 33.2829C28.4779 33.469 28.4856 33.6688 28.5568 33.8499C28.628 34.031 28.7585 34.1826 28.927 34.2799L30.617 35.2559H30.616Z" fill="#18181B"/>
<path d="M23.89 4.03091C23.8939 3.91557 23.8745 3.80063 23.833 3.69294C23.7915 3.58525 23.7288 3.48701 23.6485 3.40407C23.5683 3.32114 23.4721 3.2552 23.3659 3.21019C23.2596 3.16518 23.1454 3.14202 23.03 3.14209C22.9146 3.14216 22.8004 3.16545 22.6941 3.21058C22.5879 3.25572 22.4919 3.32176 22.4117 3.40479C22.3316 3.48782 22.269 3.58613 22.2276 3.69387C22.1862 3.80161 22.167 3.91657 22.171 4.03191C22.171 4.25999 22.2616 4.47874 22.4229 4.64002C22.5842 4.8013 22.8029 4.89191 23.031 4.89191C23.2591 4.89191 23.4778 4.8013 23.6391 4.64002C23.8004 4.47874 23.891 4.25999 23.891 4.03191L23.89 4.03091Z" fill="#18181B"/>
</g>
</g>
</g>
<defs>
<clipPath id="clip0_9_148">
<rect width="44" height="44" fill="white" transform="translate(0 0.72998)"/>
</clipPath>
<clipPath id="clip1_9_148">
<rect width="44" height="44" fill="white" transform="translate(0 0.72998)"/>
</clipPath>
</defs>
</svg>
