<svg width="44" height="45" viewBox="0 0 44 45" fill="none" xmlns="http://www.w3.org/2000/svg">
<g clip-path="url(#clip0_9_91)">
<g clip-path="url(#clip1_9_91)">
<mask id="mask0_9_91" style="mask-type:luminance" maskUnits="userSpaceOnUse" x="0" y="0" width="44" height="45">
<path d="M0 0.340088H44V44.3401H0V0.340088Z" fill="white"/>
</mask>
<g mask="url(#mask0_9_91)">
<path d="M16.328 44.3401C17.0115 44.3393 17.6667 44.0674 18.15 43.5841C18.6333 43.1008 18.9052 42.4456 18.906 41.7621V33.1681C18.9052 32.4846 18.6333 31.8293 18.15 31.346C17.6667 30.8627 17.0115 30.5909 16.328 30.5901H11.172C10.9439 30.5901 10.7251 30.4995 10.5639 30.3382C10.4026 30.1769 10.312 29.9582 10.312 29.7301V14.9501C10.312 14.722 10.4026 14.5033 10.5639 14.342C10.7251 14.1807 10.9439 14.0901 11.172 14.0901H16.328C17.0115 14.0893 17.6667 13.8174 18.15 13.3341C18.6333 12.8508 18.9052 12.1956 18.906 11.5121V2.91809C18.9052 2.2346 18.6333 1.57934 18.15 1.09604C17.6667 0.612747 17.0115 0.340882 16.328 0.340088L9.45297 0.340088C4.24097 0.340088 -2.58498e-05 4.58009 -2.58498e-05 9.79309V17.3561C0.0075776 17.579 0.101462 17.7902 0.261819 17.9452C0.422176 18.1001 0.636465 18.1868 0.859474 18.1868C1.08248 18.1868 1.29677 18.1001 1.45713 17.9452C1.61749 17.7902 1.71137 17.579 1.71897 17.3561V9.79309C1.71897 5.52809 5.18897 2.05909 9.45297 2.05909H12.031V12.3701H11.171C10.4877 12.3711 9.83266 12.6431 9.34958 13.1264C8.8665 13.6097 8.59477 14.2648 8.59397 14.9481V29.7301C8.59477 30.4136 8.86663 31.0688 9.34993 31.5521C9.83323 32.0354 10.4885 32.3073 11.172 32.3081H12.032V42.6201H9.45197C5.18697 42.6201 1.71797 39.1501 1.71797 34.8861V24.2301C1.72191 24.1147 1.70259 23.9998 1.66117 23.8921C1.61974 23.7844 1.55707 23.6861 1.47687 23.6031C1.39667 23.5201 1.30058 23.4541 1.19434 23.4091C1.0881 23.364 0.973879 23.3408 0.858474 23.3408C0.743069 23.3408 0.628845 23.364 0.522605 23.4091C0.416365 23.4541 0.320283 23.5201 0.240082 23.6031C0.159882 23.6861 0.0972038 23.7844 0.0557813 23.8921C0.0143588 23.9998 -0.00496055 24.1147 -0.00102585 24.2301V34.8861C-2.58498e-05 40.0991 4.23997 44.3401 9.45297 44.3401H16.328ZM13.75 2.05909H16.328C16.5561 2.05909 16.7748 2.14969 16.9361 2.31098C17.0974 2.47226 17.188 2.691 17.188 2.91909V11.5121C17.188 11.7402 17.0974 11.9589 16.9361 12.1202C16.7748 12.2815 16.5561 12.3721 16.328 12.3721H13.75V2.05909ZM13.75 32.3091H16.328C16.5561 32.3091 16.7748 32.3997 16.9361 32.561C17.0974 32.7223 17.188 32.941 17.188 33.1691V41.7621C17.188 41.9902 17.0974 42.2089 16.9361 42.3702C16.7748 42.5315 16.5561 42.6221 16.328 42.6221H13.75V32.3091Z" fill="#18181B"/>
<path d="M33.6879 22.3401V15.4651C33.6879 15.237 33.5973 15.0183 33.4361 14.857C33.2748 14.6957 33.056 14.6051 32.8279 14.6051H25.7809V12.0271C25.7805 11.8573 25.7298 11.6915 25.6353 11.5505C25.5408 11.4094 25.4066 11.2996 25.2498 11.2347C25.0929 11.1697 24.9203 11.1527 24.7538 11.1857C24.5872 11.2187 24.4342 11.3003 24.3139 11.4201L17.4389 18.2951C17.3592 18.3749 17.2959 18.4696 17.2527 18.5738C17.2095 18.678 17.1873 18.7898 17.1873 18.9026C17.1873 19.0154 17.2095 19.1271 17.2527 19.2314C17.2959 19.3356 17.3592 19.4303 17.4389 19.5101L24.3139 26.3851C24.4343 26.505 24.5874 26.5865 24.754 26.6195C24.9206 26.6525 25.0933 26.6354 25.2502 26.5703C25.4071 26.5053 25.5413 26.3953 25.6357 26.2541C25.7302 26.1129 25.7807 25.9469 25.7809 25.7771V23.2001H32.8279C33.0559 23.2001 33.2745 23.1096 33.4357 22.9486C33.597 22.7875 33.6877 22.568 33.6879 22.3401ZM31.9679 21.4801H24.9219C24.6939 21.4801 24.4751 21.5707 24.3138 21.732C24.1526 21.8933 24.0619 22.112 24.0619 22.3401V23.7031L19.2619 18.9031L24.0619 14.1031V15.4651C24.0619 15.9401 24.4469 16.3251 24.9219 16.3251H31.9689V21.4811L31.9679 21.4801Z" fill="#18181B"/>
<path d="M36.873 21.7321C36.7526 21.6122 36.5995 21.5306 36.4329 21.4977C36.2663 21.4647 36.0936 21.4818 35.9367 21.5469C35.7798 21.6119 35.6456 21.7219 35.5512 21.8631C35.4567 22.0043 35.4062 22.1703 35.406 22.3401V24.9181H28.36C28.132 24.9184 27.9136 25.0091 27.7525 25.1703C27.5914 25.3316 27.501 25.5502 27.501 25.7781V32.6521C27.501 33.1271 27.886 33.5121 28.361 33.5121H35.407V36.0901C35.4072 36.26 35.4577 36.4259 35.5522 36.5671C35.6466 36.7083 35.7808 36.8183 35.9377 36.8834C36.0946 36.9484 36.2673 36.9655 36.4339 36.9325C36.6005 36.8996 36.7536 36.818 36.874 36.6981L43.749 29.8231C43.8289 29.7433 43.8923 29.6485 43.9356 29.5442C43.9789 29.4399 44.0012 29.3281 44.0012 29.2151C44.0012 29.1022 43.9789 28.9903 43.9356 28.886C43.8923 28.7817 43.8289 28.6869 43.749 28.6071L36.873 21.7321ZM37.125 34.0151V32.6521C37.1247 32.4242 37.034 32.2057 36.8727 32.0446C36.7115 31.8836 36.4929 31.7931 36.265 31.7931H29.22V26.6371H36.267C36.4949 26.6368 36.7134 26.5461 36.8744 26.3849C37.0355 26.2236 37.126 26.005 37.126 25.7771V24.4151L41.926 29.2151L37.125 34.0151ZM0.859962 21.6531C1.08805 21.653 1.30674 21.5622 1.46793 21.4009C1.62912 21.2395 1.71959 21.0207 1.71946 20.7926C1.71933 20.5645 1.6286 20.3458 1.46722 20.1846C1.30585 20.0235 1.08705 19.933 0.858962 19.9331C0.630876 19.9331 0.412132 20.0237 0.250851 20.185C0.0895693 20.3463 -0.0010376 20.565 -0.0010376 20.7931C-0.0010376 21.0212 0.0895693 21.2399 0.250851 21.4012C0.412132 21.5625 0.631876 21.6531 0.859962 21.6531Z" fill="#18181B"/>
</g>
</g>
</g>
<defs>
<clipPath id="clip0_9_91">
<rect width="44" height="44" fill="white" transform="translate(0 0.340088)"/>
</clipPath>
<clipPath id="clip1_9_91">
<rect width="44" height="44" fill="white" transform="translate(0 0.340088)"/>
</clipPath>
</defs>
</svg>
