<svg width="44" height="45" viewBox="0 0 44 45" fill="none" xmlns="http://www.w3.org/2000/svg">
<g clip-path="url(#clip0_9_109)">
<g clip-path="url(#clip1_9_109)">
<g clip-path="url(#clip2_9_109)">
<mask id="mask0_9_109" style="mask-type:luminance" maskUnits="userSpaceOnUse" x="0" y="0" width="44" height="45">
<path d="M0 0.340088H44V44.3401H0V0.340088Z" fill="white"/>
</mask>
<g mask="url(#mask0_9_109)">
<path d="M0.858977 42.087H4.29498C4.52262 42.087 4.74096 41.9967 4.90203 41.8358C5.06309 41.6749 5.15371 41.4567 5.15398 41.229V40.369H7.72998C7.95762 40.369 8.17596 40.2787 8.33703 40.1178C8.49809 39.9569 8.58871 39.7387 8.58898 39.511V38.867L14.029 39.309C14.2492 39.3153 14.4634 39.2369 14.6274 39.0899C14.7915 38.9429 14.8929 38.7386 14.9107 38.519C14.9285 38.2994 14.8614 38.0814 14.7232 37.9099C14.585 37.7383 14.3863 37.6264 14.168 37.597L8.58798 37.144V28.279C9.85798 28.097 11.301 27.532 12.127 26.613C12.8266 25.8309 13.7501 25.283 14.772 25.044C16.702 24.61 18.608 25.233 19.87 26.712C20.769 27.764 21.944 28.344 23.179 28.344H26.284C27.231 28.344 28.002 29.114 28.002 30.062C28.002 31.004 27.242 31.78 26.284 31.78H18.554C18.3333 31.7907 18.1252 31.8858 17.9728 32.0458C17.8204 32.2057 17.7354 32.4181 17.7354 32.639C17.7354 32.86 17.8204 33.0724 17.9728 33.2323C18.1252 33.3922 18.3333 33.4874 18.554 33.498H26.284C26.9082 33.4989 27.5207 33.3291 28.0555 33.0071C28.5902 32.6851 29.0267 32.2231 29.318 31.671L39.558 25.96C39.7654 25.8382 39.9952 25.7591 40.2337 25.7273C40.4722 25.6956 40.7146 25.7119 40.9467 25.7752C41.1789 25.8386 41.396 25.9477 41.5852 26.0963C41.7745 26.2448 41.9322 26.4297 42.049 26.64C42.2682 27.0316 42.3331 27.491 42.2307 27.9279C42.1284 28.3648 41.8663 28.7476 41.496 29.001L26.916 38.631L21.017 38.152C20.7968 38.1458 20.5826 38.2242 20.4185 38.3712C20.2545 38.5182 20.1531 38.7225 20.1352 38.9421C20.1174 39.1617 20.1845 39.3797 20.3227 39.5512C20.4609 39.7228 20.6597 39.8347 20.878 39.864C20.878 39.864 27.12 40.37 27.143 40.37C27.311 40.37 27.476 40.32 27.616 40.227C27.616 40.227 42.456 30.425 42.461 30.423C43.188 29.9296 43.7033 29.1814 43.9052 28.3263C44.107 27.4712 43.9806 26.5714 43.551 25.805C43.3236 25.3951 43.0166 25.0348 42.648 24.7451C42.2794 24.4555 41.8567 24.2424 41.4046 24.1183C40.9526 23.9942 40.4803 23.9617 40.0155 24.0226C39.5507 24.0835 39.1028 24.2367 38.698 24.473L29.674 29.505C29.5414 28.7014 29.1279 27.9708 28.5071 27.4434C27.8863 26.916 27.0985 26.626 26.284 26.625H23.18C22.456 26.625 21.744 26.26 21.178 25.596C19.495 23.624 16.958 22.791 14.395 23.368C13.0262 23.6862 11.7885 24.418 10.85 25.464C10.374 25.994 9.44498 26.374 8.58998 26.537V25.767C8.59011 25.6541 8.56795 25.5422 8.52478 25.4378C8.48161 25.3334 8.41827 25.2385 8.33838 25.1586C8.2585 25.0788 8.16364 25.0154 8.05924 24.9722C7.95484 24.9291 7.84295 24.9069 7.72998 24.907H5.15498V24.049C5.15498 23.821 5.06437 23.6022 4.90309 23.4409C4.74181 23.2797 4.52306 23.189 4.29498 23.189H0.859977C0.632064 23.1893 0.413576 23.28 0.252511 23.4413C0.091446 23.6025 0.000976408 23.8211 0.000976563 24.049V41.229C0.000976563 41.703 0.384977 42.087 0.858977 42.087ZM6.87198 26.626V38.652H5.15398V26.626H6.87198ZM1.71798 24.908H3.43598V40.37H1.71798V24.908ZM28.862 9.44604C27.7233 9.44737 26.6316 9.9003 25.8264 10.7055C25.0212 11.5107 24.5683 12.6023 24.567 13.741C24.5683 14.8797 25.0212 15.9714 25.8264 16.7766C26.6316 17.5818 27.7233 18.0347 28.862 18.036C30.0007 18.0347 31.0924 17.5818 31.8975 16.7766C32.7027 15.9714 33.1557 14.8797 33.157 13.741C33.1557 12.6023 32.7027 11.5107 31.8975 10.7055C31.0924 9.9003 30.0007 9.44737 28.862 9.44604ZM28.862 16.318C28.1788 16.3173 27.5237 16.0455 27.0406 15.5624C26.5575 15.0793 26.2858 14.4243 26.285 13.741C26.2858 13.0578 26.5575 12.4028 27.0406 11.9197C27.5237 11.4366 28.1788 11.1648 28.862 11.164C29.5452 11.1648 30.2002 11.4366 30.6833 11.9197C31.1664 12.4028 31.4382 13.0578 31.439 13.741C31.4382 14.4243 31.1664 15.0793 30.6833 15.5624C30.2002 16.0455 29.5452 16.3173 28.862 16.318Z" fill="#18181B"/>
<path d="M39.391 9.6451L37.673 6.6701C37.559 6.47298 37.3714 6.32918 37.1515 6.2703C36.9315 6.21143 36.6972 6.24228 36.5 6.3561L34.648 7.4261C33.7278 6.57666 32.6319 5.94026 31.438 5.5621V3.4331C31.438 3.20545 31.3476 2.98711 31.1868 2.82605C31.0259 2.66498 30.8076 2.57436 30.58 2.5741H27.144C26.9159 2.5741 26.6972 2.6647 26.5359 2.82598C26.3746 2.98727 26.284 3.20601 26.284 3.4341V5.5621C25.0909 5.94023 23.9957 6.57627 23.076 7.4251L21.224 6.3551C21.0265 6.24132 20.7919 6.21059 20.5718 6.26965C20.3517 6.32871 20.164 6.47274 20.05 6.6701L18.333 9.6451C18.2191 9.84246 18.1883 10.0769 18.2471 10.2971C18.306 10.5172 18.4498 10.7049 18.647 10.8191L20.504 11.8921C20.3538 12.4974 20.2759 13.1184 20.272 13.7421C20.272 14.3321 20.349 14.9421 20.504 15.5911L18.647 16.6641C18.4499 16.7781 18.3061 16.9657 18.2472 17.1856C18.1883 17.4056 18.2192 17.6399 18.333 17.8371L20.05 20.8131C20.1064 20.9108 20.1816 20.9965 20.2711 21.0652C20.3607 21.1339 20.4629 21.1842 20.5719 21.2134C20.681 21.2425 20.7947 21.2499 20.9066 21.2351C21.0184 21.2203 21.1263 21.1836 21.224 21.1271L23.076 20.0571C23.9958 20.9063 25.0915 21.5424 26.285 21.9201V24.0491C26.285 24.5241 26.67 24.9091 27.144 24.9091H30.58C30.6929 24.9091 30.8047 24.8868 30.909 24.8436C31.0132 24.8004 31.108 24.737 31.1878 24.6571C31.2675 24.5773 31.3308 24.4825 31.3739 24.3781C31.417 24.2738 31.4391 24.162 31.439 24.0491V21.9201C32.6325 21.5424 33.7282 20.9063 34.648 20.0571L36.5 21.1271C36.6972 21.2409 36.9315 21.2718 37.1515 21.2129C37.3714 21.154 37.559 21.0102 37.673 20.8131L39.391 17.8371C39.5048 17.6399 39.5357 17.4056 39.4768 17.1856C39.4179 16.9657 39.2741 16.7781 39.077 16.6641L37.22 15.5901C37.376 14.9401 37.452 14.3301 37.452 13.7401C37.452 13.1501 37.376 12.5401 37.22 11.8901L39.077 10.8181C39.2742 10.7039 39.418 10.5162 39.4769 10.2961C39.5357 10.0759 39.5049 9.84146 39.391 9.6441V9.6451ZM35.786 10.7351C35.6173 10.8325 35.4868 10.9843 35.4157 11.1656C35.3447 11.347 35.3374 11.5471 35.395 11.7331C35.626 12.4811 35.734 13.1191 35.734 13.7411C35.734 14.3631 35.626 15.0011 35.394 15.7491C35.3367 15.9353 35.3442 16.1354 35.4154 16.3167C35.4866 16.498 35.6173 16.6497 35.786 16.7471L37.474 17.7211L36.615 19.2091L34.938 18.2411C34.7694 18.1437 34.5728 18.1064 34.3802 18.1353C34.1876 18.1641 34.0106 18.2575 33.878 18.4001C32.9457 19.4122 31.7291 20.1188 30.388 20.4271C30.1986 20.4707 30.0296 20.5772 29.9084 20.7292C29.7873 20.8812 29.7212 21.0697 29.721 21.2641V23.1901H28.003V21.2641C28.0028 21.0697 27.9367 20.8812 27.8156 20.7292C27.6944 20.5772 27.5254 20.4707 27.336 20.4271C25.9949 20.1188 24.7783 19.4122 23.846 18.4001C23.7135 18.2574 23.5365 18.1638 23.344 18.1347C23.1514 18.1057 22.9547 18.1428 22.786 18.2401L21.109 19.2101L20.249 17.7211L21.938 16.7471C22.1066 16.6497 22.2371 16.4978 22.3079 16.3165C22.3788 16.1351 22.3859 15.935 22.328 15.7491C22.098 15.0011 21.99 14.3631 21.99 13.7411C21.99 13.1191 22.098 12.4811 22.329 11.7331C22.3865 11.5472 22.3792 11.3473 22.3081 11.1661C22.2371 10.9849 22.1066 10.8333 21.938 10.7361L20.25 9.7601L21.109 8.2721L22.786 9.2411C22.9547 9.33838 23.1514 9.37553 23.344 9.34646C23.5365 9.3174 23.7135 9.22384 23.846 9.0811C24.7786 8.06951 25.9951 7.36332 27.336 7.0551C27.5257 7.01161 27.6949 6.90502 27.8161 6.75278C27.9373 6.60054 28.0032 6.41167 28.003 6.2171V4.2921H29.721V6.2181C29.721 6.6181 29.998 6.9661 30.388 7.0561C31.7289 7.36438 32.9454 8.07056 33.878 9.0821C34.0103 9.22515 34.1873 9.31894 34.3799 9.34802C34.5726 9.3771 34.7694 9.33974 34.938 9.2421L36.615 8.2731L37.475 9.7611L35.786 10.7351ZM16.664 38.7381C16.6641 38.851 16.6864 38.9628 16.7297 39.0672C16.7729 39.1715 16.8363 39.2663 16.9162 39.3461C16.9961 39.4259 17.091 39.4892 17.1954 39.5323C17.2997 39.5755 17.4116 39.5977 17.5245 39.5976C17.6374 39.5975 17.7493 39.5752 17.8536 39.5319C17.9579 39.4887 18.0527 39.4253 18.1325 39.3454C18.2123 39.2654 18.2756 39.1706 18.3187 39.0662C18.3619 38.9619 18.3841 38.85 18.384 38.7371C18.384 38.509 18.2934 38.2903 18.1321 38.129C17.9708 37.9677 17.7521 37.8771 17.524 37.8771C17.2959 37.8771 17.0772 37.9677 16.9159 38.129C16.7546 38.2903 16.664 38.51 16.664 38.7381Z" fill="#18181B"/>
</g>
</g>
</g>
</g>
<defs>
<clipPath id="clip0_9_109">
<rect width="44" height="44" fill="white" transform="translate(0 0.340088)"/>
</clipPath>
<clipPath id="clip1_9_109">
<rect width="44" height="44" fill="white" transform="translate(0 0.340088)"/>
</clipPath>
<clipPath id="clip2_9_109">
<rect width="44" height="44" fill="white" transform="translate(0 0.340088)"/>
</clipPath>
</defs>
</svg>
