<svg width="24" height="25" viewBox="0 0 24 25" fill="none" xmlns="http://www.w3.org/2000/svg">
<g clip-path="url(#clip0_9_995)">
<g clip-path="url(#clip1_9_995)">
<path d="M12 4.69C10.1103 4.68681 8.28911 5.39705 6.90052 6.67869C5.51192 7.96033 4.6583 9.71891 4.51034 11.6028C4.36239 13.4866 4.93101 15.3569 6.1025 16.8396C7.27399 18.3223 8.962 19.3082 10.829 19.6V14.358H8.92398V12.19H10.829V10.538C10.829 8.658 11.947 7.62 13.661 7.62C14.481 7.62 15.34 7.767 15.34 7.767V9.612H14.395C13.463 9.612 13.172 10.19 13.172 10.783V12.19H15.252L14.92 14.358H13.172V19.599C15.0377 19.3057 16.7241 18.3193 17.8942 16.8368C19.0644 15.3544 19.6322 13.4851 19.4842 11.6022C19.3361 9.71942 18.4832 7.96175 17.0958 6.68035C15.7084 5.39896 13.8886 4.68818 12 4.69Z" fill="white"/>
</g>
</g>
<defs>
<clipPath id="clip0_9_995">
<rect width="24" height="24" fill="white" transform="translate(0 0.190001)"/>
</clipPath>
<clipPath id="clip1_9_995">
<rect width="24" height="24" fill="white" transform="translate(0 0.190001)"/>
</clipPath>
</defs>
</svg>
