<svg width="48" height="48" viewBox="0 0 48 48" fill="none" xmlns="http://www.w3.org/2000/svg">
<g clip-path="url(#clip0_9_539)">
<g clip-path="url(#clip1_9_539)">
<mask id="mask0_9_539" style="mask-type:luminance" maskUnits="userSpaceOnUse" x="0" y="0" width="48" height="48">
<path d="M0 0H48V48H0V0Z" fill="white"/>
</mask>
<g mask="url(#mask0_9_539)">
<path d="M4.41003 21.557C5.14703 29.376 10.48 35.955 17.824 38.382L22.372 46.125H12.76C12.5167 46.1329 12.286 46.2352 12.1166 46.4101C11.9473 46.5851 11.8526 46.819 11.8526 47.0625C11.8526 47.306 11.9473 47.5399 12.1166 47.7149C12.286 47.8898 12.5167 47.9921 12.76 48H37.135C37.3837 48 37.6221 47.9012 37.7979 47.7254C37.9738 47.5496 38.0725 47.3111 38.0725 47.0625C38.0725 46.8139 37.9738 46.5754 37.7979 46.3996C37.6221 46.2238 37.3837 46.125 37.135 46.125H25.648L30.197 38.382C38.02 35.79 43.697 28.424 43.697 19.688C43.698 8.832 34.867 0 24.01 0C15.108 0 7.71403 5.876 5.23003 13.767C5.19007 13.8851 5.1741 14.01 5.18305 14.1344C5.19199 14.2588 5.22567 14.3801 5.28212 14.4913C5.33856 14.6025 5.41663 14.7013 5.51175 14.782C5.60688 14.8626 5.71714 14.9234 5.83607 14.9609C5.95501 14.9984 6.08023 15.0117 6.20439 15.0002C6.32855 14.9886 6.44916 14.9524 6.55915 14.8937C6.66914 14.8349 6.76629 14.7548 6.84491 14.658C6.92354 14.5612 6.98205 14.4497 7.01703 14.33C9.36403 6.88 16.193 1.875 24.01 1.875C33.832 1.875 41.823 9.865 41.823 19.688C41.823 27.541 36.787 34.379 29.293 36.703C29.0699 36.7719 28.8805 36.9217 28.762 37.123L24.01 45.212L19.26 37.123C19.1414 36.9218 18.9521 36.7721 18.729 36.703C15.3693 35.6692 12.3922 33.661 10.1754 30.933C7.95851 28.205 6.60171 24.8801 6.27703 21.38C6.25369 21.1324 6.13295 20.9043 5.94138 20.7457C5.74982 20.5871 5.5031 20.5112 5.25553 20.5345C5.00795 20.5578 4.77978 20.6786 4.62122 20.8701C4.46265 21.0617 4.38669 21.3094 4.41003 21.557Z" fill="#18181B"/>
<path d="M24.01 33.75C31.742 33.75 38.073 27.487 38.073 19.687C38.073 11.933 31.764 5.625 24.01 5.625C22.644 5.625 21.293 5.821 19.993 6.208C14.229 7.918 9.94803 13.275 9.94803 19.688C9.94803 27.418 16.206 33.75 24.01 33.75ZM24.01 31.875C22.38 31.875 20.806 31.56 19.323 30.941V29.063C19.323 28.545 19.743 28.125 20.26 28.125H22.135C22.8808 28.1242 23.5959 27.8276 24.1232 27.3002C24.6506 26.7728 24.9472 26.0578 24.948 25.312C24.948 24.795 25.368 24.375 25.885 24.375C26.6308 24.3742 27.3459 24.0776 27.8732 23.5502C28.4006 23.0228 28.6972 22.3078 28.698 21.562V19.687C28.7116 19.4475 28.8163 19.2223 28.9906 19.0576C29.1649 18.8928 29.3957 18.8011 29.6355 18.8011C29.8754 18.8011 30.1061 18.8928 30.2805 19.0576C30.4548 19.2223 30.5595 19.4475 30.573 19.687C30.5738 20.4325 30.8703 21.1473 31.3975 21.6745C31.9247 22.2017 32.6395 22.4982 33.385 22.499H35.871C34.588 27.913 29.669 31.875 24.01 31.875ZM36.198 19.687C36.198 20.001 36.185 20.314 36.161 20.625H33.385C33.1365 20.6245 32.8983 20.5254 32.7227 20.3496C32.5471 20.1738 32.4483 19.9355 32.448 19.687C32.447 18.9414 32.1502 18.2266 31.6229 17.6994C31.0956 17.1723 30.3807 16.8758 29.635 16.875C28.8894 16.8761 28.1746 17.1728 27.6475 17.7001C27.1203 18.2275 26.8238 18.9424 26.823 19.688V21.563C26.823 22.08 26.403 22.5 25.885 22.5C25.1394 22.5011 24.4246 22.7978 23.8975 23.3251C23.3703 23.8525 23.0738 24.5674 23.073 25.313C23.073 25.83 22.653 26.25 22.135 26.25H20.26C19.5144 26.2511 18.7996 26.5478 18.2725 27.0751C17.7453 27.6025 17.4488 28.3174 17.448 29.063V29.956C15.8621 28.9347 14.533 27.5616 13.5639 25.9434C12.5947 24.3251 12.0117 22.5052 11.86 20.625H16.51C17.2558 20.6242 17.9709 20.3276 18.4982 19.8002C19.0256 19.2728 19.3222 18.5578 19.323 17.812C19.323 17.295 19.743 16.875 20.26 16.875H24.01C24.7558 16.8742 25.4709 16.5776 25.9982 16.0502C26.5256 15.5228 26.8222 14.8078 26.823 14.062C26.822 13.3164 26.5252 12.6016 25.9979 12.0744C25.4706 11.5473 24.7557 11.2508 24.01 11.25H22.135C21.8865 11.2495 21.6483 11.1504 21.4727 10.9746C21.2971 10.7988 21.1983 10.5605 21.198 10.312V7.829C22.1195 7.61084 23.0631 7.50044 24.01 7.5C30.73 7.5 36.198 12.966 36.198 19.687ZM19.323 8.438V10.314C19.3241 11.0595 19.6207 11.7741 20.1478 12.3012C20.6749 12.8283 21.3896 13.1249 22.135 13.126H24.01C24.2534 13.1339 24.4841 13.2362 24.6534 13.4111C24.8227 13.5861 24.9174 13.82 24.9174 14.0635C24.9174 14.307 24.8227 14.5409 24.6534 14.7158C24.4841 14.8908 24.2534 14.9931 24.01 15.001H20.26C19.5144 15.0021 18.7996 15.2988 18.2725 15.8261C17.7453 16.3535 17.4488 17.0684 17.448 17.814C17.448 18.331 17.028 18.751 16.51 18.751H11.86C12.217 14.207 15.137 10.191 19.323 8.438ZM5.35403 18.656C5.47972 18.6601 5.60496 18.6389 5.72228 18.5936C5.83961 18.5484 5.94664 18.48 6.037 18.3925C6.12737 18.305 6.19922 18.2003 6.24829 18.0845C6.29737 17.9687 6.32266 17.8443 6.32266 17.7185C6.32266 17.5927 6.29737 17.4683 6.24829 17.3525C6.19922 17.2367 6.12737 17.132 6.037 17.0445C5.94664 16.957 5.83961 16.8886 5.72228 16.8434C5.60496 16.7981 5.47972 16.7769 5.35403 16.781C5.11069 16.7889 4.87998 16.8912 4.71065 17.0662C4.54132 17.2411 4.44666 17.475 4.44666 17.7185C4.44666 17.962 4.54132 18.1959 4.71065 18.3708C4.87998 18.5458 5.11069 18.6481 5.35403 18.656Z" fill="#18181B"/>
</g>
</g>
</g>
<defs>
<clipPath id="clip0_9_539">
<rect width="48" height="48" fill="white"/>
</clipPath>
<clipPath id="clip1_9_539">
<rect width="48" height="48" fill="white"/>
</clipPath>
</defs>
</svg>
