<svg width="48" height="49" viewBox="0 0 48 49" fill="none" xmlns="http://www.w3.org/2000/svg">
<g clip-path="url(#clip0_9_599)">
<g clip-path="url(#clip1_9_599)">
<path d="M34 44.9119L24 39.1429V27.6049L34 21.8369L44 27.6049V39.1429L34 44.9119Z" fill="url(#paint0_linear_9_599)"/>
<path d="M14 44.9119L4 39.1429V27.6049L14 21.8369L24 27.6049V39.1429L14 44.9119Z" fill="url(#paint1_linear_9_599)"/>
<path d="M24 27.6048L14 21.8368V10.2978L24 4.52783L34 10.2978V21.8348L24 27.6048Z" fill="url(#paint2_linear_9_599)"/>
<path d="M34 44.9118L24 39.1428M34 44.9118L44 39.1428V27.6048M34 44.9118V33.3738M24 39.1428V27.6038M24 39.1428L14 44.9118M34 33.3738L24 27.6038M34 33.3738L44 27.6038L34 21.8358M24 27.6038L34 21.8358M24 27.6038L14 21.8358M24 27.6038L14 33.3738V44.9118M14 44.9118L4 39.1428V27.6048L14 33.3748M34 21.8358V10.2978M14 21.8358L4 27.6038M14 21.8358L24 27.6048V16.0668M14 21.8358V10.2978M14 10.2998L24 4.52979L34 10.2998L24 16.0688L14 10.2998Z" stroke="#18181B" stroke-linecap="round" stroke-linejoin="round"/>
</g>
</g>
<defs>
<linearGradient id="paint0_linear_9_599" x1="24" y1="44.9119" x2="24" y2="4.52992" gradientUnits="userSpaceOnUse">
<stop stop-color="#FDFFB1"/>
<stop offset="1" stop-color="#D3FFAF"/>
</linearGradient>
<linearGradient id="paint1_linear_9_599" x1="24" y1="44.9119" x2="24" y2="4.52992" gradientUnits="userSpaceOnUse">
<stop stop-color="#FDFFB1"/>
<stop offset="1" stop-color="#D3FFAF"/>
</linearGradient>
<linearGradient id="paint2_linear_9_599" x1="24" y1="44.9118" x2="24" y2="4.52983" gradientUnits="userSpaceOnUse">
<stop stop-color="#FDFFB1"/>
<stop offset="1" stop-color="#D3FFAF"/>
</linearGradient>
<clipPath id="clip0_9_599">
<rect width="48" height="48" fill="white" transform="translate(0 0.689941)"/>
</clipPath>
<clipPath id="clip1_9_599">
<rect width="48" height="48" fill="white" transform="translate(0 0.689941)"/>
</clipPath>
</defs>
</svg>
