<svg width="44" height="45" viewBox="0 0 44 45" fill="none" xmlns="http://www.w3.org/2000/svg">
<mask id="mask0_9_169" style="mask-type:luminance" maskUnits="userSpaceOnUse" x="0" y="0" width="44" height="45">
<path d="M0 0.72998H44V44.73H0V0.72998Z" fill="white"/>
</mask>
<g mask="url(#mask0_9_169)">
<path d="M2.578 24.449H5.672V25.309C5.67306 25.9923 5.94504 26.6473 6.42831 27.1304C6.91158 27.6135 7.56669 27.8852 8.25 27.886H9.11V39.058C9.11 39.533 9.494 39.918 9.969 39.918H15.125C15.3531 39.918 15.5718 39.8274 15.7331 39.6661C15.8944 39.5048 15.985 39.2861 15.985 39.058V33.042H18.563C19.2466 33.0415 19.902 32.7697 20.3853 32.2863C20.8687 31.803 21.1405 31.1476 21.141 30.464V28.172L37.125 32.828V33.902C37.125 34.377 37.51 34.762 37.985 34.762H43.141C43.3689 34.7617 43.5874 34.671 43.7485 34.5098C43.9095 34.3485 44 34.1299 44 33.902V6.40199C44 6.17391 43.9094 5.95516 43.7481 5.79388C43.5868 5.6326 43.3681 5.54199 43.14 5.54199H37.984C37.7561 5.54226 37.5376 5.63298 37.3765 5.79423C37.2155 5.95549 37.125 6.17408 37.125 6.40199V7.47599L33.134 8.63799C32.9152 8.70164 32.7306 8.84961 32.6209 9.04934C32.5112 9.24906 32.4853 9.48419 32.549 9.70299C32.6127 9.9218 32.7606 10.1064 32.9603 10.2161C33.1601 10.3258 33.3952 10.3516 33.614 10.288L37.125 9.26599V31.038L21.141 26.382V13.922L27.013 12.212C27.223 12.141 27.3974 11.9916 27.4999 11.795C27.6024 11.5985 27.6251 11.37 27.5632 11.1571C27.5012 10.9443 27.3595 10.7636 27.1676 10.6527C26.9757 10.5418 26.7483 10.5093 26.533 10.562L20.159 12.417H8.25C7.56634 12.4178 6.91093 12.6898 6.4276 13.1733C5.94428 13.6568 5.67253 14.3123 5.672 14.996V15.855H2.578C1.89452 15.8558 1.23925 16.1277 0.755956 16.6109C0.272659 17.0942 0.000793981 17.7495 0 18.433L0 21.871C0.000793981 22.5545 0.272659 23.2097 0.755956 23.693C1.23925 24.1763 1.89452 24.4482 2.578 24.449ZM42.281 7.25999V33.042H38.844V7.25999H42.281ZM14.266 38.2H10.828V27.886H14.266V38.2ZM18.562 31.325H15.984V27.887H19.422V30.465C19.422 30.6931 19.3314 30.9118 19.1701 31.0731C19.0088 31.2344 18.7901 31.325 18.562 31.325ZM7.392 14.996C7.392 14.7681 7.48247 14.5495 7.64353 14.3882C7.8046 14.227 8.02309 14.1363 8.251 14.136H9.111V20.152C9.10539 20.2683 9.12345 20.3845 9.16408 20.4936C9.20472 20.6027 9.26708 20.7024 9.3474 20.7867C9.42772 20.871 9.52432 20.9381 9.63134 20.984C9.73836 21.0298 9.85357 21.0535 9.97 21.0535C10.0864 21.0535 10.2016 21.0298 10.3087 20.984C10.4157 20.9381 10.5123 20.871 10.5926 20.7867C10.6729 20.7024 10.7353 20.6027 10.7759 20.4936C10.8166 20.3845 10.8346 20.2683 10.829 20.152V14.136H12.548V20.152C12.5441 20.2673 12.5634 20.3823 12.6048 20.49C12.6462 20.5977 12.7089 20.696 12.7891 20.779C12.8693 20.862 12.9654 20.9279 13.0716 20.973C13.1779 21.0181 13.2921 21.0413 13.4075 21.0413C13.5229 21.0413 13.6371 21.0181 13.7434 20.973C13.8496 20.9279 13.9457 20.862 14.0259 20.779C14.1061 20.696 14.1688 20.5977 14.2102 20.49C14.2516 20.3823 14.2709 20.2673 14.267 20.152V14.136H15.985V20.152C15.985 20.2649 16.0072 20.3768 16.0505 20.4811C16.0937 20.5854 16.157 20.6802 16.2369 20.7601C16.3167 20.84 16.4116 20.9033 16.5159 20.9465C16.6202 20.9897 16.7321 21.012 16.845 21.012C16.9579 21.012 17.0698 20.9897 17.1741 20.9465C17.2784 20.9033 17.3733 20.84 17.4531 20.7601C17.533 20.6802 17.5963 20.5854 17.6395 20.4811C17.6828 20.3768 17.705 20.2649 17.705 20.152V14.136H19.423V26.167H8.25C8.02209 26.167 7.80349 26.0765 7.64224 25.9155C7.48099 25.7544 7.39026 25.5359 7.39 25.308V14.996H7.392ZM1.72 18.433C1.72 18.2049 1.81061 17.9862 1.97189 17.8249C2.13317 17.6636 2.35191 17.573 2.58 17.573H5.673V22.73H2.578C2.34991 22.73 2.13117 22.6394 1.96989 22.4781C1.80861 22.3168 1.718 22.0981 1.718 21.87V18.433H1.72Z" fill="#18181B"/>
<path d="M29.219 10.44C29.219 10.668 29.3096 10.8868 29.4709 11.0481C29.6322 11.2093 29.8509 11.3 30.079 11.3C30.3071 11.3 30.5258 11.2093 30.6871 11.0481C30.8484 10.8868 30.939 10.668 30.939 10.44C30.939 10.2119 30.8484 9.99312 30.6871 9.83184C30.5258 9.67056 30.3071 9.57996 30.079 9.57996C29.8509 9.57996 29.6322 9.67056 29.4709 9.83184C29.3096 9.99312 29.219 10.2119 29.219 10.44Z" fill="#18181B"/>
</g>
</svg>
