<svg width="24" height="25" viewBox="0 0 24 25" fill="none" xmlns="http://www.w3.org/2000/svg">
<g clip-path="url(#clip0_9_1003)">
<g clip-path="url(#clip1_9_1003)">
<path d="M12 4.69C14.038 4.69 14.292 4.698 15.091 4.735C15.891 4.772 16.434 4.898 16.913 5.084C17.407 5.274 17.825 5.532 18.241 5.948C18.623 6.323 18.918 6.777 19.106 7.278C19.291 7.755 19.417 8.3 19.455 9.098C19.49 9.898 19.5 10.152 19.5 12.19C19.5 14.228 19.492 14.482 19.455 15.281C19.418 16.081 19.292 16.624 19.106 17.103C18.918 17.603 18.623 18.057 18.241 18.431C17.8663 18.8122 17.4131 19.1073 16.913 19.296C16.435 19.481 15.89 19.607 15.091 19.645C14.292 19.68 14.038 19.69 12 19.69C9.962 19.69 9.708 19.682 8.909 19.645C8.109 19.608 7.566 19.482 7.087 19.296C6.58623 19.108 6.13263 18.8128 5.758 18.431C5.37695 18.0564 5.08211 17.6032 4.894 17.103C4.708 16.625 4.582 16.08 4.545 15.281C4.51 14.483 4.5 14.228 4.5 12.19C4.5 10.152 4.508 9.898 4.545 9.099C4.582 8.299 4.708 7.756 4.894 7.277C5.081 6.777 5.377 6.323 5.758 5.948C6.13312 5.56658 6.58704 5.27171 7.088 5.084C7.566 4.898 8.109 4.772 8.908 4.735C9.709 4.7 9.963 4.69 12 4.69ZM12 8.44C11.0054 8.44 10.0516 8.83509 9.34835 9.53835C8.64509 10.2416 8.25 11.1954 8.25 12.19C8.25 13.1846 8.64509 14.1384 9.34835 14.8417C10.0516 15.5449 11.0054 15.94 12 15.94C12.9946 15.94 13.9484 15.5449 14.6517 14.8417C15.3549 14.1384 15.75 13.1846 15.75 12.19C15.75 11.1954 15.3549 10.2416 14.6517 9.53835C13.9484 8.83509 12.9946 8.44 12 8.44ZM16.875 8.252C16.8791 8.12631 16.8579 8.00108 16.8126 7.88375C16.7674 7.76642 16.699 7.65939 16.6115 7.56903C16.524 7.47866 16.4193 7.40681 16.3035 7.35774C16.1877 7.30867 16.0633 7.28338 15.9375 7.28338C15.8117 7.28338 15.6873 7.30867 15.5715 7.35774C15.4557 7.40681 15.351 7.47866 15.2635 7.56903C15.176 7.65939 15.1076 7.76642 15.0624 7.88375C15.0171 8.00108 14.9959 8.12631 15 8.252C15.0079 8.49534 15.1102 8.72606 15.2852 8.89538C15.4601 9.06471 15.694 9.15938 15.9375 9.15938C16.181 9.15938 16.4149 9.06471 16.5898 8.89538C16.7648 8.72606 16.8671 8.49534 16.875 8.252ZM12 9.94C12.5967 9.94 13.169 10.1771 13.591 10.599C14.0129 11.021 14.25 11.5933 14.25 12.19C14.25 12.7867 14.0129 13.359 13.591 13.781C13.169 14.2029 12.5967 14.44 12 14.44C11.4033 14.44 10.831 14.2029 10.409 13.781C9.98705 13.359 9.75 12.7867 9.75 12.19C9.75 11.5933 9.98705 11.021 10.409 10.599C10.831 10.1771 11.4033 9.94 12 9.94Z" fill="white"/>
</g>
</g>
<defs>
<clipPath id="clip0_9_1003">
<rect width="24" height="24" fill="white" transform="translate(0 0.190001)"/>
</clipPath>
<clipPath id="clip1_9_1003">
<rect width="24" height="24" fill="white" transform="translate(0 0.190001)"/>
</clipPath>
</defs>
</svg>
