<svg width="120" height="33" viewBox="0 0 120 33" fill="none" xmlns="http://www.w3.org/2000/svg">
<g clip-path="url(#clip0_9_1013)">
<g clip-path="url(#clip1_9_1013)">
<path d="M7.968 25.568C11.976 25.568 14.784 23.648 14.784 20.36C14.784 17.72 13.464 16.136 8.376 15.176C4.728 14.456 4.176 13.736 4.176 12.368C4.176 11.024 5.472 10.184 7.416 10.184C10.128 10.184 11.376 11.264 11.496 13.472H14.376C14.28 10.112 12.12 7.712 7.416 7.712C3.696 7.712 1.152 9.608 1.152 12.44C1.152 15.584 3.168 16.928 7.272 17.72C11.016 18.464 11.76 19.16 11.76 20.48C11.76 22.208 10.224 23.096 8.04 23.096C5.76 23.096 3.696 22.304 3.6 19.472H0.671997C0.767997 23.576 3.768 25.568 7.968 25.568ZM18.455 20.432V12.8H15.719V20.744C15.719 23.504 17.207 25.568 20.159 25.568C21.959 25.568 23.255 24.704 24.119 23.528V25.28H26.783V12.8H24.023V19.688C24.023 22.52 22.007 23.144 20.975 23.144C19.199 23.144 18.455 21.992 18.455 20.432ZM28.477 25.28H31.141V23.528C32.005 24.8 33.325 25.568 35.149 25.568C38.821 25.568 40.813 22.76 40.813 19.04C40.813 15.32 38.821 12.512 35.149 12.512C33.397 12.512 32.101 13.232 31.237 14.408V8H28.477V25.28ZM31.189 19.04C31.189 16.568 32.269 14.864 34.573 14.864C36.901 14.864 37.981 16.568 37.981 19.04C37.981 21.512 36.901 23.216 34.573 23.216C32.269 23.216 31.189 21.512 31.189 19.04ZM41.938 8V22.184C41.938 24.536 43.138 25.28 45.274 25.28H47.578V23.096H45.922C45.034 23.096 44.698 22.712 44.698 21.872V8H41.938ZM48.53 25.28H51.29V12.8H48.53V25.28ZM48.53 10.712H51.29V8H48.53V10.712ZM68.545 17.648V25.28H71.305V17.336C71.305 14.576 69.793 12.512 67.105 12.512C65.185 12.512 63.841 13.544 63.025 14.864C62.377 13.424 61.105 12.512 59.305 12.512C57.505 12.512 56.329 13.4 55.585 14.576V12.8H52.921V25.28H55.681V18.392C55.681 15.56 57.457 14.936 58.489 14.936C60.001 14.936 60.721 16.088 60.721 17.648V25.28H63.505V18.392C63.505 15.56 65.257 14.936 66.289 14.936C67.801 14.936 68.545 16.088 68.545 17.648ZM78.535 25.568C81.439 25.568 83.575 23.936 84.367 21.464H81.631C81.103 22.64 80.047 23.336 78.535 23.336C76.615 23.336 75.463 21.992 75.223 19.928H84.607V19.208C84.607 15.248 82.303 12.512 78.535 12.512C74.743 12.512 72.439 15.32 72.439 19.04C72.439 22.76 74.743 25.568 78.535 25.568ZM75.271 17.864C75.583 15.968 76.711 14.744 78.535 14.744C80.335 14.744 81.463 15.968 81.775 17.864H75.271Z" fill="#18181B"/>
<path d="M104.833 16.28C106.38 16.28 107.864 15.6655 108.958 14.5716C110.052 13.4777 110.667 11.9941 110.667 10.447C110.667 11.994 111.282 13.4777 112.375 14.5716C113.469 15.6655 114.953 16.28 116.5 16.28C114.953 16.28 113.469 16.8945 112.375 17.9884C111.282 19.0823 110.667 20.566 110.667 22.113C110.667 20.5659 110.052 19.0823 108.958 17.9884C107.864 16.8945 106.38 16.28 104.833 16.28Z" fill="#18181B" stroke="#18181B" stroke-width="1.75" stroke-linecap="round" stroke-linejoin="round"/>
<path d="M101.333 9.863C101.797 9.863 102.242 9.67862 102.57 9.35044C102.899 9.02225 103.083 8.57713 103.083 8.113C103.083 9.08 103.867 9.863 104.833 9.863C104.369 9.863 103.924 10.0474 103.596 10.3756C103.267 10.7038 103.083 11.1489 103.083 11.613C103.083 11.1489 102.899 10.7038 102.57 10.3756C102.242 10.0474 101.797 9.863 101.333 9.863ZM95.5 15.113C96.144 15.113 96.667 14.591 96.667 13.947C96.667 14.591 97.189 15.113 97.833 15.113C97.189 15.113 96.667 15.636 96.667 16.28C96.667 15.636 96.144 15.113 95.5 15.113Z" stroke="#18181B" stroke-width="1.75" stroke-linecap="round" stroke-linejoin="round"/>
<path d="M97.833 22.113C98.7613 22.113 99.6515 21.7443 100.308 21.0879C100.964 20.4315 101.333 19.5413 101.333 18.613C101.333 19.5413 101.702 20.4315 102.358 21.0879C103.015 21.7443 103.905 22.113 104.833 22.113C103.905 22.113 103.015 22.4817 102.358 23.1381C101.702 23.7945 101.333 24.6847 101.333 25.613C101.333 24.6847 100.964 23.7945 100.308 23.1381C99.6515 22.4817 98.7613 22.113 97.833 22.113Z" fill="#18181B" stroke="#18181B" stroke-width="1.75" stroke-linecap="round" stroke-linejoin="round"/>
</g>
</g>
<defs>
<clipPath id="clip0_9_1013">
<rect width="120" height="32" fill="white" transform="translate(0 0.279999)"/>
</clipPath>
<clipPath id="clip1_9_1013">
<rect width="120" height="32" fill="white" transform="translate(0 0.279999)"/>
</clipPath>
</defs>
</svg>
