<svg width="24" height="25" viewBox="0 0 24 25" fill="none" xmlns="http://www.w3.org/2000/svg">
<g clip-path="url(#clip0_9_1007)">
<g clip-path="url(#clip1_9_1007)">
<path d="M12 19.69C10.0109 19.69 8.10322 18.8998 6.6967 17.4933C5.29018 16.0868 4.5 14.1791 4.5 12.19C4.5 10.2009 5.29018 8.29322 6.6967 6.8867C8.10322 5.48018 10.0109 4.69 12 4.69C13.9891 4.69 15.8968 5.48018 17.3033 6.8867C18.7098 8.29322 19.5 10.2009 19.5 12.19C19.5 14.1791 18.7098 16.0868 17.3033 17.4933C15.8968 18.8998 13.9891 19.69 12 19.69ZM9.668 13.067L9.678 13.062L10.33 15.215C10.414 15.448 10.53 15.49 10.67 15.47C10.81 15.452 10.885 15.376 10.977 15.288L11.868 14.426L13.78 15.842C14.13 16.035 14.381 15.936 14.468 15.519L15.711 9.652C15.848 9.106 15.608 8.887 15.184 9.061L7.884 11.881C7.387 12.081 7.39 12.359 7.794 12.483L9.668 13.068V13.067Z" fill="white"/>
</g>
</g>
<defs>
<clipPath id="clip0_9_1007">
<rect width="24" height="24" fill="white" transform="translate(0 0.190001)"/>
</clipPath>
<clipPath id="clip1_9_1007">
<rect width="24" height="24" fill="white" transform="translate(0 0.190001)"/>
</clipPath>
</defs>
</svg>
