<svg width="44" height="45" viewBox="0 0 44 45" fill="none" xmlns="http://www.w3.org/2000/svg">
<g clip-path="url(#clip0_9_92)">
<mask id="mask0_9_92" style="mask-type:luminance" maskUnits="userSpaceOnUse" x="0" y="0" width="44" height="45">
<path d="M0 0.340088H44V44.3401H0V0.340088Z" fill="white"/>
</mask>
<g mask="url(#mask0_9_92)">
<path d="M16.328 44.3401C17.0115 44.3393 17.6668 44.0674 18.1501 43.5841C18.6334 43.1008 18.9052 42.4456 18.906 41.7621V33.1681C18.9052 32.4846 18.6334 31.8293 18.1501 31.346C17.6668 30.8627 17.0115 30.5909 16.328 30.5901H11.172C10.9439 30.5901 10.7252 30.4995 10.5639 30.3382C10.4026 30.1769 10.312 29.9582 10.312 29.7301V14.9501C10.312 14.722 10.4026 14.5033 10.5639 14.342C10.7252 14.1807 10.9439 14.0901 11.172 14.0901H16.328C17.0115 14.0893 17.6668 13.8174 18.1501 13.3341C18.6334 12.8508 18.9052 12.1956 18.906 11.5121V2.91809C18.9052 2.2346 18.6334 1.57934 18.1501 1.09604C17.6668 0.612747 17.0115 0.340882 16.328 0.340088L9.45304 0.340088C4.24104 0.340088 3.51854e-05 4.58009 3.51854e-05 9.79309V17.3561C0.00763863 17.579 0.101523 17.7902 0.26188 17.9452C0.422237 18.1001 0.636526 18.1868 0.859535 18.1868C1.08254 18.1868 1.29683 18.1001 1.45719 17.9452C1.61755 17.7902 1.71143 17.579 1.71904 17.3561V9.79309C1.71904 5.52809 5.18904 2.05909 9.45304 2.05909H12.031V12.3701H11.171C10.4877 12.3711 9.83272 12.6431 9.34964 13.1264C8.86656 13.6097 8.59483 14.2648 8.59404 14.9481V29.7301C8.59483 30.4136 8.86669 31.0688 9.34999 31.5521C9.83329 32.0354 10.4886 32.3073 11.172 32.3081H12.032V42.6201H9.45203C5.18704 42.6201 1.71804 39.1501 1.71804 34.8861V24.2301C1.72197 24.1147 1.70265 23.9998 1.66123 23.8921C1.61981 23.7844 1.55713 23.6861 1.47693 23.6031C1.39673 23.5201 1.30064 23.4541 1.1944 23.4091C1.08816 23.364 0.97394 23.3408 0.858535 23.3408C0.74313 23.3408 0.628906 23.364 0.522666 23.4091C0.416426 23.4541 0.320344 23.5201 0.240144 23.6031C0.159943 23.6861 0.0972648 23.7844 0.0558423 23.8921C0.0144198 23.9998 -0.00489952 24.1147 -0.000964815 24.2301V34.8861C3.51854e-05 40.0991 4.24004 44.3401 9.45304 44.3401H16.328ZM13.75 2.05909H16.328C16.5561 2.05909 16.7749 2.14969 16.9361 2.31098C17.0974 2.47226 17.188 2.691 17.188 2.91909V11.5121C17.188 11.7402 17.0974 11.9589 16.9361 12.1202C16.7749 12.2815 16.5561 12.3721 16.328 12.3721H13.75V2.05909ZM13.75 32.3091H16.328C16.5561 32.3091 16.7749 32.3997 16.9361 32.561C17.0974 32.7223 17.188 32.941 17.188 33.1691V41.7621C17.188 41.9902 17.0974 42.2089 16.9361 42.3702C16.7749 42.5315 16.5561 42.6221 16.328 42.6221H13.75V32.3091Z" fill="#18181B"/>
<path d="M33.6881 22.3401V15.4651C33.6881 15.237 33.5975 15.0183 33.4362 14.857C33.2749 14.6957 33.0562 14.6051 32.8281 14.6051H25.7811V12.0271C25.7806 11.8573 25.73 11.6915 25.6354 11.5505C25.5409 11.4094 25.4067 11.2996 25.2499 11.2347C25.093 11.1697 24.9204 11.1527 24.7539 11.1857C24.5874 11.2187 24.4343 11.3003 24.3141 11.4201L17.4391 18.2951C17.3593 18.3749 17.296 18.4696 17.2528 18.5738C17.2096 18.678 17.1874 18.7898 17.1874 18.9026C17.1874 19.0154 17.2096 19.1271 17.2528 19.2314C17.296 19.3356 17.3593 19.4303 17.4391 19.5101L24.3141 26.3851C24.4344 26.505 24.5875 26.5865 24.7541 26.6195C24.9208 26.6525 25.0934 26.6354 25.2503 26.5703C25.4072 26.5053 25.5414 26.3953 25.6358 26.2541C25.7303 26.1129 25.7808 25.9469 25.7811 25.7771V23.2001H32.8281C33.056 23.2001 33.2746 23.1096 33.4358 22.9486C33.5971 22.7875 33.6878 22.568 33.6881 22.3401ZM31.9681 21.4801H24.9221C24.694 21.4801 24.4752 21.5707 24.314 21.732C24.1527 21.8933 24.0621 22.112 24.0621 22.3401V23.7031L19.2621 18.9031L24.0621 14.1031V15.4651C24.0621 15.9401 24.4471 16.3251 24.9221 16.3251H31.9691V21.4811L31.9681 21.4801Z" fill="#18181B"/>
<path d="M36.873 21.7321C36.7527 21.6122 36.5996 21.5306 36.4329 21.4977C36.2663 21.4647 36.0937 21.4818 35.9368 21.5469C35.7798 21.6119 35.6457 21.7219 35.5513 21.8631C35.4568 22.0043 35.4063 22.1703 35.406 22.3401V24.9181H28.36C28.1321 24.9184 27.9136 25.0091 27.7526 25.1703C27.5915 25.3316 27.501 25.5502 27.501 25.7781V32.6521C27.501 33.1271 27.886 33.5121 28.361 33.5121H35.407V36.0901C35.4073 36.26 35.4578 36.4259 35.5522 36.5671C35.6467 36.7083 35.7808 36.8183 35.9378 36.8834C36.0947 36.9484 36.2673 36.9655 36.4339 36.9325C36.6006 36.8996 36.7537 36.818 36.874 36.6981L43.749 29.8231C43.829 29.7433 43.8924 29.6485 43.9357 29.5442C43.9789 29.4399 44.0012 29.3281 44.0012 29.2151C44.0012 29.1022 43.9789 28.9903 43.9357 28.886C43.8924 28.7817 43.829 28.6869 43.749 28.6071L36.873 21.7321ZM37.125 34.0151V32.6521C37.1248 32.4242 37.034 32.2057 36.8728 32.0446C36.7115 31.8836 36.4929 31.7931 36.265 31.7931H29.22V26.6371H36.267C36.4949 26.6368 36.7134 26.5461 36.8745 26.3849C37.0356 26.2236 37.126 26.005 37.126 25.7771V24.4151L41.926 29.2151L37.125 34.0151ZM0.860023 21.6531C1.08811 21.653 1.3068 21.5622 1.46799 21.4009C1.62918 21.2395 1.71966 21.0207 1.71952 20.7926C1.71939 20.5645 1.62866 20.3458 1.46728 20.1846C1.30591 20.0235 1.08711 19.933 0.859023 19.9331C0.630937 19.9331 0.412193 20.0237 0.250912 20.185C0.0896303 20.3463 -0.000976562 20.565 -0.000976562 20.7931C-0.000976562 21.0212 0.0896303 21.2399 0.250912 21.4012C0.412193 21.5625 0.631937 21.6531 0.860023 21.6531Z" fill="#18181B"/>
</g>
</g>
<defs>
<clipPath id="clip0_9_92">
<rect width="44" height="44" fill="white" transform="translate(0 0.340088)"/>
</clipPath>
</defs>
</svg>
