<svg width="24" height="25" viewBox="0 0 24 25" fill="none" xmlns="http://www.w3.org/2000/svg">
<g clip-path="url(#clip0_9_999)">
<g clip-path="url(#clip1_9_999)">
<path d="M13.0271 4.76C11.2318 4.51178 9.40744 4.92182 7.89107 5.91434C6.37471 6.90685 5.26889 8.41474 4.778 10.1593C4.28712 11.9039 4.44435 13.7671 5.22065 15.4048C5.99694 17.0424 7.33981 18.3436 9.00106 19.068C8.95639 18.4917 8.99785 17.912 9.12406 17.348C9.26206 16.718 10.0961 13.25 10.0961 13.25C9.93023 12.8783 9.84731 12.475 9.85306 12.068C9.85306 10.954 10.4951 10.123 11.2951 10.123C11.4386 10.1211 11.5809 10.15 11.7123 10.2079C11.8437 10.2659 11.9611 10.3514 12.0565 10.4586C12.1519 10.5659 12.2231 10.6925 12.2653 10.8297C12.3075 10.9669 12.3197 11.1116 12.3011 11.254C12.3011 11.929 11.8681 12.951 11.6411 13.909C11.5963 14.0848 11.5935 14.2687 11.6329 14.4458C11.6723 14.6229 11.7527 14.7883 11.8677 14.9286C11.9827 15.069 12.1291 15.1803 12.2951 15.2537C12.461 15.327 12.6419 15.3604 12.8231 15.351C14.2461 15.351 15.2001 13.528 15.2001 11.375C15.2001 9.725 14.1071 8.489 12.0931 8.489C11.611 8.47027 11.1302 8.54971 10.6798 8.72248C10.2294 8.89525 9.81884 9.15776 9.47299 9.49406C9.12715 9.83037 8.85326 10.2335 8.66796 10.6788C8.48266 11.1242 8.38982 11.6026 8.39506 12.085C8.37346 12.6202 8.54607 13.1451 8.88106 13.563C8.94361 13.6096 8.98933 13.6753 9.01134 13.7501C9.03334 13.825 9.03044 13.9049 9.00306 13.978C8.96806 14.116 8.88106 14.445 8.84706 14.566C8.83974 14.6069 8.82294 14.6456 8.798 14.6788C8.77305 14.7121 8.74066 14.739 8.70342 14.7575C8.66618 14.776 8.62513 14.7854 8.58356 14.7852C8.542 14.7849 8.50107 14.7749 8.46406 14.756C7.42606 14.341 6.93706 13.199 6.93706 11.894C6.93706 9.759 8.72506 7.204 12.3031 7.204C15.1501 7.204 17.0431 9.286 17.0431 11.514C17.0431 14.445 15.4101 16.649 12.9971 16.649C12.6366 16.6604 12.2791 16.5808 11.9575 16.4175C11.6359 16.2543 11.3606 16.0127 11.1571 15.715C11.1571 15.715 10.7231 17.452 10.6371 17.78C10.463 18.3477 10.2059 18.8866 9.87406 19.379C10.5661 19.589 11.2851 19.694 12.0081 19.691C12.9933 19.6919 13.9691 19.4984 14.8795 19.1216C15.7899 18.7448 16.617 18.1921 17.3134 17.4951C18.0098 16.7981 18.5619 15.9706 18.938 15.0599C19.3141 14.1492 19.5068 13.1733 19.5051 12.188C19.504 10.3769 18.8477 8.62725 17.6574 7.26217C16.4671 5.89709 14.8232 5.0087 13.0291 4.761L13.0271 4.76Z" fill="white"/>
</g>
</g>
<defs>
<clipPath id="clip0_9_999">
<rect width="24" height="24" fill="white" transform="translate(0 0.190001)"/>
</clipPath>
<clipPath id="clip1_9_999">
<rect width="24" height="24" fill="white" transform="translate(0 0.190001)"/>
</clipPath>
</defs>
</svg>
