<svg width="48" height="48" viewBox="0 0 48 48" fill="none" xmlns="http://www.w3.org/2000/svg">
<g clip-path="url(#clip0_9_528)">
<path d="M29.625 21.188C29.8738 21.188 30.1124 21.0892 30.2883 20.9133C30.4642 20.7374 30.563 20.4988 30.563 20.25C30.563 20.0012 30.4642 19.7627 30.2883 19.5867C30.1124 19.4108 29.8738 19.312 29.625 19.312C29.3817 19.32 29.1509 19.4222 28.9816 19.5972C28.8123 19.7721 28.7176 20.006 28.7176 20.2495C28.7176 20.493 28.8123 20.7269 28.9816 20.9019C29.1509 21.0768 29.3817 21.1801 29.625 21.188ZM29.625 42.375C29.5018 42.375 29.3798 42.3993 29.266 42.4464C29.1522 42.4935 29.0488 42.5626 28.9617 42.6497C28.8746 42.7368 28.8055 42.8403 28.7584 42.9541C28.7113 43.0679 28.687 43.1898 28.687 43.313C28.687 43.4362 28.7113 43.5582 28.7584 43.672C28.8055 43.7858 28.8746 43.8892 28.9617 43.9763C29.0488 44.0634 29.1522 44.1325 29.266 44.1796C29.3798 44.2267 29.5018 44.251 29.625 44.251C29.8738 44.251 30.1124 44.1522 30.2883 43.9763C30.4642 43.8004 30.563 43.5618 30.563 43.313C30.563 43.0642 30.4642 42.8257 30.2883 42.6497C30.1124 42.4738 29.8738 42.375 29.625 42.375ZM18.375 19.313C18.2493 19.3089 18.1241 19.3301 18.0067 19.3754C17.8894 19.4206 17.7824 19.489 17.692 19.5765C17.6017 19.664 17.5298 19.7687 17.4807 19.8845C17.4317 20.0003 17.4064 20.1248 17.4064 20.2505C17.4064 20.3763 17.4317 20.5007 17.4807 20.6165C17.5298 20.7323 17.6017 20.8371 17.692 20.9245C17.7824 21.012 17.8894 21.0804 18.0067 21.1256C18.1241 21.1709 18.2493 21.1921 18.375 21.188C18.6183 21.1801 18.8491 21.0778 19.0184 20.9029C19.1877 20.7279 19.2824 20.494 19.2824 20.2505C19.2824 20.007 19.1877 19.7731 19.0184 19.5982C18.8491 19.4232 18.6183 19.321 18.375 19.313Z" fill="#18181B"/>
<path d="M39.938 16.502V15.938C39.938 7.15 32.788 0 24 0C15.212 0 8.06201 7.15 8.06201 15.938V16.502C7.4813 16.9395 7.00987 17.5056 6.68472 18.1559C6.35957 18.8062 6.18956 19.5229 6.18801 20.25V24C6.18934 25.2428 6.68354 26.4342 7.5622 27.3131C8.44087 28.192 9.63226 28.6864 10.875 28.688H13.729C15.0692 30.7836 17.0175 32.4199 19.313 33.378V36.75H12.75C11.01 36.7519 9.34172 37.4439 8.11132 38.6743C6.88092 39.9047 6.18886 41.573 6.18701 43.313V47.063C6.18701 47.58 6.60701 48 7.12501 48H40.875C41.393 48 41.813 47.58 41.813 47.062V43.312C41.8109 41.5721 41.1187 39.9041 39.8884 38.674C38.658 37.4438 36.9899 36.7519 35.25 36.75H28.687V33.377C30.9825 32.4187 32.9307 30.7825 34.271 28.687H37.125C38.3678 28.6857 39.5593 28.1915 40.4381 27.3128C41.317 26.4341 41.8114 25.2428 41.813 24V20.25C41.813 18.77 41.107 17.381 39.938 16.502ZM24 1.875C31.66 1.875 37.91 8.032 38.059 15.657C37.7516 15.5941 37.4387 15.5623 37.125 15.562H36.182C36.1714 15.2097 36.145 14.858 36.103 14.508C35.388 8.375 30.184 3.75 24 3.75C22.8671 3.74924 21.7396 3.90641 20.65 4.217C20.5316 4.25075 20.421 4.30749 20.3246 4.38397C20.2281 4.46046 20.1477 4.55519 20.0878 4.66277C20.028 4.77035 19.9899 4.88866 19.9758 5.01095C19.9617 5.13324 19.9718 5.25711 20.0055 5.3755C20.0393 5.49389 20.096 5.60447 20.1725 5.70093C20.249 5.79739 20.3437 5.87784 20.4513 5.93768C20.5589 5.99753 20.6772 6.0356 20.7995 6.04973C20.9218 6.06385 21.0456 6.05375 21.164 6.02C22.0864 5.75715 23.0409 5.62421 24 5.625C28.877 5.625 33.032 9.023 34.065 13.688H31.5C30.7542 13.6872 30.0392 13.3906 29.5118 12.8632C28.9844 12.3358 28.6878 11.6208 28.687 10.875C28.6863 10.6528 28.6066 10.438 28.4623 10.2691C28.318 10.1001 28.1184 9.9878 27.899 9.95226C27.6797 9.91672 27.4548 9.96022 27.2645 10.075C27.0742 10.1898 26.9309 10.3684 26.86 10.579C26.3772 12.031 25.4491 13.294 24.2076 14.1886C22.9661 15.0831 21.4742 15.5637 19.944 15.562H13.694C13.7631 13.5339 14.4335 11.5722 15.62 9.926C15.7555 9.72383 15.8072 9.47689 15.764 9.23736C15.7208 8.99783 15.5862 8.78446 15.3887 8.64232C15.1911 8.50018 14.946 8.4404 14.7052 8.47561C14.4643 8.51081 14.2466 8.63825 14.098 8.831C12.6814 10.7961 11.8877 13.1415 11.82 15.563H10.875C10.56 15.563 10.247 15.595 9.94101 15.657C10.091 8.032 16.34 1.875 24 1.875ZM8.06201 24V20.25C8.06254 19.5041 8.35908 18.7889 8.88651 18.2615C9.41393 17.7341 10.1291 17.4375 10.875 17.437H11.813V22.125C11.813 23.741 12.133 25.335 12.748 26.813H10.875C10.1292 26.8122 9.41417 26.5156 8.8868 25.9882C8.35943 25.4608 8.06281 24.7458 8.06201 24ZM13.688 22.125V17.437H19.943C21.4451 17.4386 22.9246 17.0706 24.2509 16.3654C25.5771 15.6601 26.7095 14.6393 27.548 13.393C27.9713 14.0577 28.5553 14.605 29.246 14.9843C29.9368 15.3636 30.712 15.5626 31.5 15.563H34.305C34.31 15.687 34.313 15.813 34.313 15.937V22.125C34.313 24.482 33.514 26.795 31.953 28.688H24C23.8745 28.6839 23.7494 28.7051 23.6321 28.7503C23.5149 28.7955 23.408 28.8638 23.3178 28.9512C23.2275 29.0386 23.1557 29.1432 23.1067 29.2589C23.0577 29.3745 23.0324 29.4989 23.0324 29.6245C23.0324 29.7501 23.0577 29.8745 23.1067 29.9901C23.1557 30.1058 23.2275 30.2104 23.3178 30.2978C23.408 30.3852 23.5149 30.4535 23.6321 30.4987C23.7494 30.5439 23.8745 30.5651 24 30.561H29.93C28.1954 31.7857 26.1234 32.4415 24 32.438C18.302 32.438 13.688 27.818 13.688 22.125ZM27.422 38.565L24 41.987L20.578 38.565C20.7569 38.4984 20.9112 38.3787 21.0202 38.2219C21.1293 38.0652 21.1878 37.8789 21.188 37.688V33.986C22.105 34.203 23.046 34.313 24 34.313C24.954 34.313 25.895 34.203 26.813 33.986V37.688C26.813 38.09 27.066 38.432 27.422 38.565ZM8.06201 43.313C8.06334 42.0701 8.55767 40.8784 9.43656 39.9995C10.3154 39.1207 11.5071 38.6263 12.75 38.625H17.986L23.062 43.701V46.125H8.06201V43.313ZM39.938 43.313V46.125H24.938V43.701L30.014 38.625H35.25C36.4929 38.6263 37.6846 39.1207 38.5635 39.9995C39.4423 40.8784 39.9367 42.0701 39.938 43.313ZM39.938 24C39.9372 24.7458 39.6406 25.4608 39.1132 25.9882C38.5859 26.5156 37.8708 26.8122 37.125 26.813H35.252C35.867 25.336 36.187 23.741 36.187 22.125V17.437H37.125C37.8709 17.4375 38.5861 17.7341 39.1135 18.2615C39.6409 18.7889 39.9375 19.5041 39.938 20.25V24Z" fill="#18181B"/>
<path d="M24 26.813C24.8226 26.8114 25.6304 26.5941 26.3428 26.1828C27.0552 25.7715 27.6473 25.1806 28.06 24.469C28.1753 24.2544 28.2025 24.0033 28.136 23.7689C28.0694 23.5346 27.9143 23.3353 27.7034 23.2133C27.4925 23.0913 27.2424 23.0561 27.0061 23.1152C26.7697 23.1743 26.5656 23.3231 26.437 23.53C26.1893 23.9572 25.8339 24.3121 25.4063 24.5591C24.9787 24.8062 24.4938 24.9368 24 24.938C23.5062 24.937 23.0214 24.8066 22.5938 24.5597C22.1662 24.3128 21.8108 23.9581 21.563 23.531C21.4355 23.3215 21.231 23.1702 20.9934 23.1096C20.7557 23.0491 20.5038 23.084 20.2916 23.2069C20.0793 23.3298 19.9237 23.531 19.858 23.7672C19.7923 24.0035 19.8217 24.2562 19.94 24.471C20.3531 25.182 20.9453 25.7724 21.6577 26.1831C22.3701 26.5939 23.1777 26.8117 24 26.813ZM33.375 44.25H35.25C35.4986 44.25 35.7371 44.1512 35.9129 43.9754C36.0887 43.7996 36.1875 43.5612 36.1875 43.3125C36.1875 43.0639 36.0887 42.8254 35.9129 42.6496C35.7371 42.4738 35.4986 42.375 35.25 42.375H33.375C33.1264 42.375 32.8879 42.4738 32.7121 42.6496C32.5363 42.8254 32.4375 43.0639 32.4375 43.3125C32.4375 43.5612 32.5363 43.7996 32.7121 43.9754C32.8879 44.1512 33.1264 44.25 33.375 44.25ZM17.531 7.68801C17.6542 7.68801 17.7762 7.66375 17.89 7.61661C18.0038 7.56947 18.1072 7.50038 18.1943 7.41328C18.2814 7.32618 18.3505 7.22277 18.3976 7.10897C18.4447 6.99517 18.469 6.87319 18.469 6.75001C18.469 6.62683 18.4447 6.50486 18.3976 6.39105C18.3505 6.27725 18.2814 6.17385 18.1943 6.08675C18.1072 5.99964 18.0038 5.93055 17.89 5.88341C17.7762 5.83627 17.6542 5.81201 17.531 5.81201C17.2877 5.81996 17.0569 5.92221 16.8876 6.09716C16.7183 6.27211 16.6236 6.50604 16.6236 6.74951C16.6236 6.99298 16.7183 7.22691 16.8876 7.40186C17.0569 7.57681 17.2877 7.67906 17.531 7.68701V7.68801Z" fill="#18181B"/>
</g>
<defs>
<clipPath id="clip0_9_528">
<rect width="48" height="48" fill="white"/>
</clipPath>
</defs>
</svg>
