<svg width="48" height="48" viewBox="0 0 48 48" fill="none" xmlns="http://www.w3.org/2000/svg">
<g clip-path="url(#clip0_9_554)">
<g clip-path="url(#clip1_9_554)">
<mask id="mask0_9_554" style="mask-type:luminance" maskUnits="userSpaceOnUse" x="0" y="0" width="48" height="48">
<path d="M0 0H48V48H0V0Z" fill="white"/>
</mask>
<g mask="url(#mask0_9_554)">
<path d="M47.125 35.309L30.388 6.19201C29.7541 5.05394 28.8278 4.10583 27.7047 3.44568C26.5817 2.78554 25.3027 2.43731 24 2.43701C22.6973 2.43731 21.4183 2.78554 20.2953 3.44568C19.1722 4.10583 18.2459 5.05394 17.612 6.19201L11.832 16.248C11.7205 16.4626 11.6963 16.712 11.7643 16.9441C11.8323 17.1762 11.9873 17.3731 12.197 17.4936C12.4067 17.6141 12.6548 17.649 12.8896 17.5909C13.1244 17.5329 13.3277 17.3864 13.457 17.182L19.248 7.11001C19.7192 6.26307 20.4082 5.55746 21.2437 5.06621C22.0792 4.57497 23.0308 4.31594 24 4.31594C24.9692 4.31594 25.9208 4.57497 26.7563 5.06621C27.5918 5.55746 28.2808 6.26307 28.752 7.11001L45.496 36.238C45.907 36.98 46.125 37.82 46.125 38.669C46.1237 40 45.5944 41.2761 44.6532 42.2172C43.7121 43.1584 42.436 43.6877 41.105 43.689H6.896C5.56502 43.6877 4.28893 43.1584 3.34779 42.2172C2.40664 41.2761 1.87732 40 1.876 38.669C1.876 37.82 2.094 36.979 2.505 36.238L9.72 23.683C9.83147 23.4684 9.85573 23.219 9.78772 22.9869C9.71971 22.7548 9.56468 22.558 9.355 22.4374C9.14532 22.3169 8.89719 22.282 8.66241 22.3401C8.42763 22.3982 8.22435 22.5447 8.095 22.749L0.868 35.32C0.299326 36.3443 0.000622077 37.4964 0 38.668C0.00185265 40.4959 0.728746 42.2485 2.02119 43.5411C3.31364 44.8337 5.06607 45.5609 6.894 45.563H41.106C42.9339 45.5609 44.6864 44.8337 45.9788 43.5411C47.2713 42.2485 47.9981 40.4959 48 38.668C48 37.499 47.7 36.342 47.132 35.32L47.125 35.309Z" fill="#18181B"/>
<path d="M4.14598 37.1419C2.98598 39.2339 4.50298 41.8119 6.89398 41.8119H41.106C43.497 41.8119 45.014 39.2339 43.854 37.1419L27.109 8.01194C26.7997 7.45918 26.3486 6.99888 25.8022 6.6785C25.2558 6.35811 24.6339 6.18921 24.0005 6.18921C23.3671 6.18921 22.7451 6.35811 22.1987 6.6785C21.6523 6.99888 21.2013 7.45918 20.892 8.01194L4.14598 37.1419ZM5.78298 38.0569L22.527 8.92994C22.673 8.66726 22.8867 8.4484 23.1458 8.29604C23.4048 8.14367 23.6999 8.06332 24.0005 8.06332C24.301 8.06332 24.5961 8.14367 24.8552 8.29604C25.1143 8.4484 25.3279 8.66726 25.474 8.92994L42.217 38.0559C42.3233 38.2492 42.3774 38.4668 42.374 38.6873C42.3707 38.9078 42.3099 39.1236 42.1978 39.3136C42.0857 39.5035 41.9261 39.6609 41.7346 39.7704C41.5432 39.8799 41.3265 39.9376 41.106 39.9379H6.89398C6.67358 39.9375 6.45709 39.8798 6.26577 39.7703C6.07446 39.6609 5.91492 39.5036 5.80284 39.3138C5.69075 39.124 5.62998 38.9084 5.6265 38.688C5.62302 38.4676 5.67694 38.2501 5.78298 38.0569Z" fill="#18181B"/>
<path d="M24 37.125C24.7458 37.1242 25.4609 36.8276 25.9882 36.3002C26.5156 35.7728 26.8122 35.0578 26.813 34.312C26.812 33.5664 26.5152 32.8516 25.9879 32.3244C25.4605 31.7973 24.7457 31.5008 24 31.5C23.2542 31.5008 22.5392 31.7974 22.0118 32.3248C21.4844 32.8522 21.1878 33.5672 21.187 34.313C21.1883 35.0585 21.4852 35.773 22.0125 36.2999C22.5398 36.8269 23.2546 37.1242 24 37.125ZM24 33.375C24.2489 33.3753 24.4875 33.4744 24.6633 33.6506C24.8392 33.8268 24.9378 34.0656 24.9375 34.3145C24.9373 34.5634 24.8381 34.802 24.6619 34.9778C24.4857 35.1536 24.2469 35.2523 23.998 35.252C23.7491 35.2517 23.5105 35.1526 23.3347 34.9764C23.1589 34.8002 23.0603 34.5614 23.0605 34.3125C23.0608 34.0636 23.1599 33.825 23.3361 33.6492C23.5123 33.4734 23.7511 33.3747 24 33.375ZM22.125 29.625H25.875C26.393 29.625 26.813 29.205 26.813 28.687V17.437C26.813 17.3139 26.7887 17.1919 26.7416 17.0782C26.6944 16.9644 26.6253 16.8611 26.5382 16.7741C26.4511 16.6871 26.3477 16.6181 26.2339 16.571C26.1201 16.524 25.9981 16.4999 25.875 16.5H22.125C22.0018 16.4999 21.8798 16.524 21.7659 16.5711C21.652 16.6182 21.5486 16.6873 21.4615 16.7744C21.3743 16.8616 21.3052 16.965 21.2582 17.0789C21.2111 17.1928 21.1869 17.3148 21.187 17.438V28.688C21.187 29.205 21.607 29.625 22.125 29.625ZM23.063 18.375H24.938V27.75H23.063V18.375ZM10.781 20.906C11.0298 20.906 11.2684 20.8072 11.4443 20.6313C11.6202 20.4554 11.719 20.2168 11.719 19.968C11.719 19.7192 11.6202 19.4806 11.4443 19.3047C11.2684 19.1288 11.0298 19.03 10.781 19.03C10.5322 19.03 10.2937 19.1288 10.1178 19.3047C9.94184 19.4806 9.84302 19.7192 9.84302 19.968C9.84302 20.2168 9.94184 20.4554 10.1178 20.6313C10.2937 20.8072 10.5322 20.906 10.781 20.906Z" fill="#18181B"/>
</g>
</g>
</g>
<defs>
<clipPath id="clip0_9_554">
<rect width="48" height="48" fill="white"/>
</clipPath>
<clipPath id="clip1_9_554">
<rect width="48" height="48" fill="white"/>
</clipPath>
</defs>
</svg>
